<svg width="115" height="102" viewBox="0 0 115 102" fill="none" xmlns="http://www.w3.org/2000/svg">
<path d="M48.4898 94.6367C48.4828 94.6248 48.4828 94.6129 48.4758 94.6011C44.2235 96.2147 39.2799 95.3454 35.0206 94.0264C24.519 90.7754 13.389 84.8221 9.10173 74.0775C7.96359 71.2328 7.41197 68.1738 7.6005 65.1553C4.88432 63.5815 3.0898 60.0853 2.12622 57.2658C-0.177996 50.5179 1.30231 43.1375 4.31874 36.8617C7.11173 31.0495 11.5944 25.3336 17.8019 22.9798C17.9904 22.2069 18.2138 21.4444 18.4861 20.6965C20.6297 14.7845 25.0985 9.9938 30.7194 7.23922C36.0191 4.64663 42.3452 3.5867 48.1407 4.83447C50.2494 3.05394 53.3287 2.10504 55.9052 1.684C65.527 0.112249 75.868 0.955015 83.6675 7.3335C86.8515 9.93726 89.8749 13.0563 92.235 16.4707C97.6673 17.6222 102.555 21.0764 106.137 25.2303C112.931 33.0967 114.893 44.0327 113.273 54.0895C112.463 59.1148 110.843 64.0563 108.309 68.479C107.108 70.5765 105.641 72.5428 103.938 74.2542C102.436 75.7526 100.446 77.4968 98.3097 77.98C98.1491 78.8654 97.9676 79.7368 97.786 80.5838C96.5571 86.2842 94.588 92.2284 90.0424 96.1631C85.8599 99.7772 80.2461 101.086 74.8346 100.996C71.6646 100.943 68.5155 100.419 65.4292 99.7129C62.6921 99.088 59.9759 98.3493 57.3645 97.32C54.9765 96.3795 52.6164 95.1506 50.6264 93.5272C50.4449 93.6403 50.2704 93.7457 50.0888 93.8477C50.0958 93.8574 50.0957 93.8658 50.1027 93.8756M108.385 66.1238C107.254 68.5383 105.823 70.8572 104.063 72.8667C103.177 73.8834 102.192 74.8051 101.138 75.6465C100.244 76.3587 99.2523 76.9361 98.3656 77.6463C99.1616 73.1125 99.4059 68.2367 96.8992 64.2874C101.996 57.7979 104.007 48.7933 102.073 40.7837C100.942 36.1117 98.596 31.8322 95.4539 28.2153C96.2499 24.752 95.2025 21.3892 93.4639 18.3986C97.4299 19.8328 100.963 21.9653 103.938 25.0543C107.282 28.5288 109.824 32.7699 111.192 37.4007C113.985 46.8221 112.505 57.314 108.385 66.1238ZM90.6919 93.9664C82.9483 102.55 69.4512 100.521 59.6827 97.3005C54.5226 95.5989 49.4115 92.8666 46.7372 87.9335C49.1322 88.5759 51.618 88.8587 54.0898 88.747C62.4129 92.1356 72.2441 90.2713 79.4291 85.084C84.3447 81.5397 87.5427 76.4495 89.0091 70.8139C89.037 70.8034 89.0649 70.795 89.0929 70.7797C91.816 69.3895 94.1831 67.4735 96.1451 65.2035C98.4424 69.3064 97.8698 74.2898 97.004 78.7446C95.9636 84.1106 94.4484 89.8097 90.6919 93.9664ZM36.6615 93.3673C31.5014 91.9456 26.3554 89.7943 21.8237 86.9364C13.766 81.8525 6.57406 72.3891 9.12266 62.3295C10.2957 57.7266 13.382 53.6678 17.6413 51.5584C16.8662 53.2167 16.3425 54.9986 16.133 56.9118C15.4697 63.1206 18.1091 69.2079 23.1365 72.9149C25.6781 74.7834 28.9458 76.212 32.1578 76.1338C32.8211 77.4144 33.5543 78.6524 34.4132 79.8017C37.3318 83.7035 41.5911 86.4435 46.2554 87.7988C46.2554 87.8246 46.2624 87.8511 46.2694 87.8798C47.0724 89.8069 48.3013 91.4282 49.7816 92.7961C45.6828 94.9781 41.0325 94.5704 36.6615 93.3673ZM7.64237 64.5863C6.88128 63.6702 6.05733 62.8085 5.35909 61.8226C4.50723 60.6097 3.82297 59.281 3.2923 57.8977C2.14718 54.9058 1.75617 51.6666 2.01453 48.4805C2.53821 41.9079 5.48481 35.2564 9.73015 30.236C11.9157 27.6539 14.5271 25.629 17.5505 24.1759C17.1525 26.388 17.1036 28.6601 17.4527 30.8861C16.943 32.101 16.4962 33.3467 16.14 34.6175C14.6667 39.811 14.6039 45.7762 17.9136 50.298C17.9904 50.4042 18.0812 50.4656 18.1789 50.4921C18.1161 50.6066 18.0532 50.7219 17.9974 50.8378C13.5984 52.1107 10.4005 55.7108 8.75261 59.9073C8.1591 61.426 7.79598 62.9984 7.64237 64.5863ZM23.5415 14.1987C27.305 9.70197 32.7653 6.939 38.4839 5.90141C41.4515 5.36166 44.5098 5.29743 47.5332 5.39658C46.3252 6.62898 45.5642 8.20421 45.6061 10.2033C45.6061 10.3192 45.641 10.4183 45.6899 10.5021C42.6525 10.7207 39.643 11.3512 36.7662 12.407C28.8411 15.3187 22.131 21.4346 18.3395 28.9827C18.1231 23.6166 20.0921 18.3288 23.5415 14.1987ZM60.4857 87.5153C65.8831 85.5923 71.6577 80.6264 71.8392 74.465C71.8392 74.4385 71.8392 74.414 71.8392 74.3903C72.0696 74.2604 72.307 74.1271 72.5304 73.9867C78.3748 70.4005 81.5727 63.8 81.0979 56.9963C80.9722 55.1648 80.5742 53.2579 79.8131 51.5332C81.2725 50.7456 82.4525 49.6012 83.3532 48.2536C88.5692 55.0321 89.8959 64.3956 87.2565 72.4785C84.4495 81.0732 77.0062 87.0747 68.2781 88.9425C64.0537 89.8446 59.6687 89.7266 55.5072 88.638C57.2039 88.4558 58.8797 88.0878 60.4857 87.5153ZM29.8187 66.8884C29.3788 64.1673 30.0072 61.5356 31.7877 59.4136C33.3588 57.5388 35.656 56.2911 38.0929 56.083C37.3667 57.1338 36.8221 58.2902 36.5358 59.4465C35.4815 63.6855 37.1991 67.7234 40.1527 70.765C43.0853 73.7849 47.0724 75.4754 51.2968 74.8051C52.7212 74.5782 54.1107 74.1229 55.4374 73.5399C56.9176 76.2777 60.7859 76.8049 63.5859 76.6994C66.1834 76.601 68.746 75.9418 71.0711 74.7925C70.5754 77.2755 69.6117 79.4701 67.9429 81.4224C66.2462 83.4061 64.0607 84.9716 61.6867 86.0441C57.6089 87.8909 52.9586 88.2519 48.5876 87.3784C44.2375 86.5098 40.069 84.3697 36.9618 81.1899C35.1254 79.3158 33.7638 77.1058 32.6396 74.7478C31.4526 72.26 30.2516 69.6283 29.8187 66.8884ZM27.4586 42.1586C27.6471 43.7918 28.122 45.3977 28.883 46.9367C29.7209 48.6376 30.8241 50.2045 32.053 51.6394C33.2261 52.9982 34.6156 54.4302 36.1657 55.3917C32.486 56.4209 29.4695 59.554 28.7713 63.3755C28.2546 66.2013 29.1204 69.0781 30.1678 71.6804C30.6845 72.9722 31.2361 74.2681 31.8576 75.5291C29.1972 74.9377 26.6835 74.1508 24.3723 72.6007C21.9634 70.9808 19.9525 68.7527 18.6886 66.1322C16.154 60.9037 16.5939 54.3849 19.8408 49.5642C21.8796 46.5366 24.7424 44.4837 27.4586 42.1586ZM56.9665 72.8074C58.9077 71.7872 60.8418 70.5695 62.4198 69.0257C63.935 67.5412 65.0801 65.7328 65.4083 63.6122C65.5968 62.3993 65.5201 60.9163 64.9475 59.7453C69.2557 60.2913 73.7384 57.2428 75.4352 53.3933C76.1055 51.8698 76.4336 50.2456 76.4615 48.6159C78.5633 50.4747 79.6037 53.3263 80.0296 56.0551C80.5114 59.1783 80.0785 62.4266 78.8845 65.3459C76.5733 70.9794 71.2526 74.9364 65.2547 75.8078C61.931 76.291 58.2024 75.9509 55.8494 73.3562C56.2194 73.1817 56.5965 72.9994 56.9665 72.8074ZM39.9363 55.4692C41.0814 54.3011 42.4011 53.6259 43.8534 53.0652C43.8115 53.6419 43.8325 54.2306 43.9163 54.8297C44.3981 58.1184 46.7232 60.9973 49.6908 62.4133C54.2294 64.5779 59.983 62.9314 63.4463 59.3229C63.5161 59.3948 63.6069 59.4548 63.7256 59.4897C63.7744 59.5058 63.8303 59.5184 63.8861 59.5323C64.3959 60.7836 64.7171 61.9713 64.4936 63.4195C64.2213 65.2028 63.2507 66.7836 62.0009 68.0586C59.5151 70.5981 55.9122 72.6328 52.4698 73.521C48.7132 74.4902 45.0475 73.5999 42.0799 71.1044C39.1473 68.6347 36.9129 65.0338 37.3179 61.0831C37.5343 58.9835 38.449 56.976 39.9363 55.4692ZM45.0195 51.999C45.5013 49.8693 46.8978 47.9896 48.6015 46.5952C51.2478 44.4216 54.9695 42.8435 58.4398 43.0118C61.3515 43.1529 64.4377 45.1401 64.6751 48.1761C63.8861 47.3752 62.8527 46.7809 61.6378 46.4968C58.1116 45.6777 54.5436 48.2096 53.5241 51.6059C53.0074 53.3473 53.4613 55.5007 55.1441 56.4489C56.9106 57.446 59.3336 56.5299 60.6882 55.2172C61.9171 54.0225 62.4617 51.8265 61.0164 50.5501C59.8992 49.5586 57.8533 50.1067 57.7206 51.6945C57.7067 51.8537 57.8743 51.9605 58.0139 51.8977C58.3421 51.7553 58.6633 51.6149 58.9915 51.4753C59.0822 51.4355 59.0333 51.2916 58.9355 51.3105C58.74 51.3482 58.5375 51.3845 58.342 51.4222C58.8029 50.8643 59.7037 50.7477 60.2832 51.2525C60.8628 51.756 60.9605 52.6455 60.7161 53.3389C60.1784 54.8415 58.0488 55.965 56.4987 55.796C54.7671 55.6068 54.0967 53.6936 54.4389 52.1931C54.8229 50.5075 56.2124 48.8394 57.6857 47.9715C59.8922 46.6797 63.0064 47.4031 64.5146 49.4392C66.2741 51.8251 65.3664 55.1104 63.7954 57.3329C60.6253 61.8191 53.7685 64.043 48.9646 60.8464C46.7581 59.3766 45.1172 56.953 44.8659 54.2815C44.81 53.739 44.824 53.2062 44.8938 52.686C44.9078 52.6811 44.9217 52.677 44.9357 52.6721C45.2709 52.5541 45.229 52.1924 45.0195 51.999ZM39.6988 54.0665C38.1138 49.2618 38.8331 43.8308 42.0101 39.8299C43.4624 37.9949 45.3617 36.5181 47.4913 35.5441C49.9422 34.4248 52.6025 34.1308 55.2768 34.1162C60.4997 34.0854 65.925 34.6126 70.1913 37.9349C74.0107 40.9087 76.2521 45.8313 75.0511 50.6555C74.4576 53.0205 72.9634 55.111 70.9733 56.5033C68.9833 57.8935 66.7769 58.2866 64.4308 58.1561C65.3664 56.8839 66.0437 55.4308 66.33 53.8577C66.6303 52.214 66.33 50.6171 65.555 49.3184C65.5969 49.2562 65.6247 49.1815 65.6387 49.0901C65.9739 45.5478 62.9505 42.7409 59.6618 42.1586C55.8703 41.4868 51.6808 43.0991 48.6434 45.3014C46.3951 46.9346 44.5656 49.28 44.007 51.9654C42.4011 52.2615 40.8999 53.1161 39.657 54.2745C39.7059 54.2215 39.7268 54.1474 39.6988 54.0665ZM41.0744 39.7894C39.5941 34.9701 41.7377 29.8666 45.5432 26.7762C49.4953 23.5726 54.8159 22.3137 59.8154 22.3172C64.9754 22.3214 70.1284 23.7304 74.5414 26.4152C78.689 28.9373 82.4665 32.6952 83.9468 37.4203C85.4689 42.2661 83.9817 48.0825 79.3872 50.6604C78.6611 49.2981 77.6835 48.0895 76.4057 47.1789C76.1404 44.1925 74.8835 41.2836 72.8656 39.0486C68.8786 34.6321 63.1949 33.3795 57.4623 33.3872C54.5715 33.3907 51.5691 33.4081 48.804 34.3193C46.4719 35.0867 44.3353 36.4273 42.6176 38.1785C38.5049 42.3722 37.1363 48.771 39.3288 54.2396C39.3847 54.3786 39.5174 54.3828 39.6151 54.3178C39.3568 54.5594 39.1124 54.8143 38.882 55.0796C38.8191 55.0489 38.7422 55.0307 38.6515 55.0314C37.9742 55.0377 37.3108 55.1201 36.6615 55.2661C35.6839 54.0707 34.5179 53.0023 33.4845 51.8523C32.3742 50.6262 31.3548 49.3226 30.5169 47.8982C28.7922 44.9676 27.9683 41.667 28.5898 38.2868C29.8815 31.2575 35.5862 24.671 42.3243 22.364C44.2235 21.7125 46.2414 21.3808 48.2524 21.3913C50.0469 21.4011 51.7646 21.7649 53.4962 22.1559C50.9546 22.7794 48.5177 23.81 46.3252 25.3008C41.6959 28.438 38.6166 34.3738 40.7253 39.9011C40.8021 40.091 41.1303 39.9877 41.0744 39.7894ZM67.0981 16.3974C63.0064 13.1192 57.5949 11.3533 52.4489 10.6921C50.5566 10.4484 48.6434 10.3674 46.7442 10.4435C46.7581 10.3967 46.7721 10.3471 46.7721 10.2906C46.9607 5.45941 51.9392 3.60276 55.989 2.92755C60.4438 2.18252 65.0522 1.93465 69.542 2.52885C74.0596 3.12655 78.3678 4.68437 82.0406 7.39845C85.4271 9.89608 88.4994 13.0724 91.041 16.4177C91.1876 16.6062 91.3272 16.7975 91.4669 16.9896C91.3831 17.3387 91.5018 17.75 91.8998 17.8721C91.9766 17.8959 92.0465 17.921 92.1233 17.9448C94.0784 20.9088 95.426 24.2953 95.1676 27.8857C90.4544 22.6098 84.0236 18.7987 77.1598 17.3366C70.9384 16.0127 63.5859 16.5441 58.6982 21.0198C58.4817 21.2161 58.754 21.5295 58.9844 21.3627C68.5853 14.4584 82.1872 17.6613 90.657 24.9147C95 28.6286 98.5192 33.5987 100.293 39.0444C102.031 44.388 101.948 50.187 100.167 55.5097C98.2678 61.2137 94.5182 66.1754 89.3582 69.2736C89.8888 66.6314 90.0564 63.8929 89.8469 61.1544C89.4489 56.039 87.445 51.0053 84.268 46.989C84.2331 46.9416 84.1912 46.9011 84.1493 46.8668C85.2036 44.7009 85.6225 42.1955 85.3642 39.8299C84.7986 34.6629 81.2935 30.2283 77.2506 27.1979C71.0362 22.5378 62.364 20.3767 54.5785 21.9171C54.5576 21.8661 54.5157 21.8186 54.4529 21.7802C51.3387 19.9759 47.1981 20.0409 43.7906 20.8474C40.069 21.7286 36.6964 23.7276 34.0081 26.4291C31.278 29.1684 29.0925 32.6303 27.9753 36.345C27.5145 37.8832 27.319 39.4361 27.3678 40.9729C27.3539 40.9792 27.3469 40.9841 27.3329 40.9925C23.9744 43.3002 20.8322 46.1337 18.7165 49.5579C15.8817 45.6358 15.8119 40.429 16.9291 35.882C18.1161 31.0655 20.546 26.58 23.7649 22.8206C30.4122 15.0512 40.3273 10.889 50.5287 11.56C53.3706 11.7471 56.1845 12.296 58.8867 13.1939C61.6657 14.1163 64.2213 15.4464 66.7559 16.8834C67.0841 17.0699 67.3983 16.6397 67.0981 16.3974Z" stroke="#EDA6BE" stroke-width="2"/>
</svg>
