<svg width="74" height="56" viewBox="0 0 74 56" fill="none" xmlns="http://www.w3.org/2000/svg">
<path d="M2.45508 19.3613C2.45508 28.5781 6.11641 37.4173 12.6336 43.9345C19.1509 50.4518 27.9901 54.1131 37.2069 54.1131C46.4236 54.1131 55.2628 50.4518 61.7801 43.9345C68.2973 37.4173 71.9586 28.5781 71.9586 19.3613" stroke="white" stroke-width="2" stroke-linecap="round" stroke-linejoin="round"/>
<path d="M37.2061 54.1131C37.2061 44.8964 40.8674 36.0571 47.3846 29.5399C53.9018 23.0227 62.7411 19.3613 71.9578 19.3613" stroke="white" stroke-width="2" stroke-linecap="round" stroke-linejoin="round"/>
<path d="M2.45508 19.3613C7.01875 19.3613 11.5377 20.2602 15.754 22.0066C19.9703 23.7531 23.8013 26.3129 27.0283 29.5399C30.2553 32.7669 32.8151 36.5979 34.5615 40.8142C36.308 45.0304 37.2069 49.5494 37.2069 54.1131" stroke="white" stroke-width="2" stroke-linecap="round" stroke-linejoin="round"/>
<path d="M37.2061 1.98633C40.7083 5.32964 43.4491 9.38817 45.2422 13.8857C47.0352 18.3833 47.8383 23.2144 47.5968 28.0502" stroke="white" stroke-width="2" stroke-linecap="round" stroke-linejoin="round"/>
<path d="M26.8154 28.0502C26.5739 23.2144 27.377 18.3833 29.1701 13.8857C30.9631 9.38817 33.704 5.32964 37.2062 1.98633" stroke="white" stroke-width="2" stroke-linecap="round" stroke-linejoin="round"/>
</svg>
