<svg width="467" height="771" viewBox="0 0 467 771" fill="none" xmlns="http://www.w3.org/2000/svg">
<path d="M446.555 542.129C442.297 549.679 436.972 556.65 430.336 562.291C422.858 568.632 413.971 572.472 404.424 574.448C398.88 575.603 393.053 576.442 387.386 576.495C384.969 576.516 382.229 576.217 379.937 575.163C393.019 556.798 407.683 539.581 423.698 523.671C435.753 511.702 448.62 500.571 462.009 490.085C462.246 490.002 462.472 489.899 462.703 489.806C459.133 507.724 455.621 526.06 446.555 542.129ZM376.336 572.147C376.156 571.875 375.931 571.707 375.691 571.625C372.639 564.146 373.673 556.058 376.254 548.238C378.312 541.952 381.139 535.564 384.639 529.747C384.158 531.49 383.82 533.305 383.496 534.984C382.883 538.154 382.494 541.378 382.356 544.588C382.198 547.9 382.357 551.224 382.746 554.521C383.081 557.268 383.294 560.574 384.685 563.043C382.111 566.376 379.593 569.741 377.128 573.152C376.835 572.842 376.571 572.515 376.336 572.147ZM389.354 522.84C392.948 518.232 397.188 514.558 401.866 511.538C401.172 513.452 400.822 515.61 400.371 517.452C399.49 520.968 398.787 524.525 398.245 528.094C397.234 534.608 396.561 541.241 397.072 547.818C395.627 549.503 394.207 551.187 392.789 552.895C390.307 555.891 387.868 558.94 385.481 562.012C385.426 559.53 384.652 556.942 384.413 554.5C384.104 551.365 384.044 548.216 384.156 545.073C384.293 541.837 384.647 538.621 385.27 535.445C385.867 532.36 387.107 529.362 387.575 526.3C387.615 526.007 387.501 525.761 387.332 525.6C387.991 524.646 388.662 523.736 389.354 522.84ZM414.478 505.139C413.125 509.529 412.124 514.017 411.548 518.57C411.013 522.922 410.522 527.671 411.388 532.011C406.771 536.84 402.275 541.793 397.916 546.848C398.434 540.536 398.778 534.233 399.832 527.977C400.387 524.749 401.058 521.546 401.847 518.366C402.501 515.79 403.827 512.897 404.067 510.183C407.383 508.246 410.885 506.59 414.478 505.139ZM417.025 504.142C421.151 502.608 425.38 501.298 429.619 500.074C427.274 505.493 426.244 511.336 426.396 517.215C421.579 521.694 416.88 526.311 412.322 531.042C412.769 526.716 412.692 522.353 413.375 518.034C414.136 513.285 415.377 508.674 417.026 504.167C417.03 504.152 417.03 504.152 417.025 504.142ZM436.134 498.264C437.655 497.85 439.177 497.436 440.693 497.012C439.554 499.554 439.059 502.953 439.723 505.462C435.432 509.048 431.214 512.762 427.111 516.564C427.671 510.665 429.19 505.021 431.441 499.553C433.007 499.127 434.578 498.685 436.134 498.264ZM456.93 491.967C451.363 496.035 445.935 500.28 440.637 504.685C440.811 503.4 440.894 502.091 441.168 500.801C441.505 499.282 442.126 497.897 442.629 496.465C447.443 495.094 452.217 493.629 456.93 491.967ZM191.818 586.694C188.49 585.134 185.155 583.563 181.849 581.952C183.084 577.694 183.647 573.3 183.596 568.871C183.557 565.827 183.377 562.397 182.568 559.315C189.48 566.905 193.85 576.249 191.818 586.694ZM190.951 590.099C190.847 590.416 190.854 590.723 190.947 590.978C187.806 593.473 184.556 595.823 180.778 597.289C176.719 598.875 172.368 599.584 168.01 599.575C158.64 599.568 149.881 595.863 142.856 589.755C135.725 583.553 130.452 575.302 127.003 566.555C123.773 558.353 122.16 549.632 118.962 541.463C138.936 562.823 164.849 577.34 190.956 590.084C190.946 590.09 190.946 590.09 190.951 590.099ZM117.434 537.913C117.356 537.752 117.286 537.584 117.202 537.414C122.028 536.654 126.92 536.398 131.812 536.618C133.569 542.024 134.218 547.325 134.265 553.109C134.265 553.199 134.288 553.263 134.317 553.337C128.433 548.668 122.865 543.625 117.715 538.088C117.624 537.997 117.532 537.948 117.434 537.913ZM133.475 536.703C136.649 536.923 139.813 537.352 142.926 537.966C145.347 545.609 145.567 552.88 144.492 560.849C141.207 558.594 137.977 556.23 134.852 553.755C135.193 553.832 135.558 553.701 135.616 553.281C136.322 547.776 135.434 541.942 133.475 536.703ZM154.473 541.167C157.373 550.446 158.868 559.324 157.485 569.092C153.409 566.694 149.391 564.172 145.482 561.523C145.579 561.443 145.664 561.343 145.722 561.195C148.118 553.891 147.352 545.41 144.485 538.277C147.877 539.017 151.215 539.979 154.473 541.167ZM165.311 546.049C166.402 546.652 167.501 547.29 168.607 547.962C168.815 549.919 169.364 551.861 169.618 553.806C169.924 556.117 170.135 558.42 170.123 560.76C170.108 565.665 168.812 570.178 168.042 574.958C166.061 573.906 164.091 572.849 162.123 571.751C160.891 571.061 159.663 570.354 158.429 569.639C158.439 569.633 158.433 569.622 158.443 569.617C160.004 560.572 159.561 550.387 156.027 541.741C159.208 542.973 162.319 544.4 165.311 546.049ZM170.647 549.277C174.364 551.725 177.942 554.587 181.105 557.788C181.611 561.495 182.534 565.094 182.632 568.879C182.742 573.184 182.161 577.457 181.255 581.657C177.181 579.671 173.134 577.643 169.107 575.537C171.358 571.293 171.893 565.965 172.002 561.225C172.062 557.583 171.943 553.011 170.647 549.277ZM162.002 426.088C162.868 429.384 163.771 432.903 162.972 436.201C160.015 434.522 157.056 432.817 154.117 431.102C154.176 431.068 154.229 431.025 154.275 430.947C156.119 427.533 156.395 423.408 156.601 419.567C156.73 417.09 157.048 413.923 156.613 411.159C157.015 412.003 157.402 412.843 157.77 413.694C159.514 417.692 160.905 421.865 162.002 426.088ZM161.839 440.116C154.627 443.971 148.305 449.324 139.932 450.684C132.647 451.867 125.201 450.335 118.629 447.092C103.536 439.632 94.7822 425.077 90.0929 409.401C87.5718 400.946 86.0485 392.246 84.7259 383.536C104.427 403.849 128.502 419.813 152.81 434.029C155.781 435.778 158.776 437.501 161.775 439.208C161.687 439.53 161.724 439.845 161.839 440.116ZM84.2774 380.521C87.5707 380.497 90.8681 380.548 94.1626 380.639C95.3098 382.521 96.2423 384.524 96.8499 386.66C97.4298 388.748 97.3197 391.008 97.8828 393.066C93.2829 389.27 88.7765 385.343 84.3833 381.275C84.3545 381.02 84.316 380.77 84.2774 380.521ZM104.076 381.104C107.904 387.653 109.905 394.853 109.829 402.445C106.036 399.612 102.328 396.704 98.6715 393.704C100.254 389.921 98.2234 384.509 95.9709 380.684C98.6719 380.777 101.381 380.93 104.076 381.104ZM114.57 382.065C115.245 384.138 116.669 386.12 117.44 388.112C118.276 390.287 118.934 392.511 119.413 394.785C120.502 399.905 119.879 404.693 120.048 409.806C116.95 407.651 113.875 405.47 110.862 403.215C111.27 395.55 109.64 387.958 105.985 381.234C108.849 381.454 111.705 381.73 114.57 382.065ZM118.961 386.653C118.42 385.292 117.879 383.726 117.097 382.374C120.183 382.804 123.252 383.385 126.234 384.198C127.832 389.235 129.419 394.163 130.28 399.425C131.264 405.291 131.523 411.244 131.208 417.189C128.281 415.311 125.361 413.403 122.47 411.454C122.026 411.15 121.577 410.837 121.133 410.534C121.137 410.518 121.151 410.497 121.165 410.477C122.942 405.718 122.223 399.637 121.307 394.755C120.792 391.985 119.997 389.269 118.961 386.653ZM140.185 390.536C140.483 392.9 141.277 395.228 141.789 397.561C142.477 400.724 142.881 403.933 143.004 407.172C143.246 412.8 142.059 418.142 141.632 423.684C138.341 421.69 135.068 419.66 131.823 417.589C131.855 417.532 131.888 417.474 131.893 417.394C132.664 406.64 131.694 394.847 127.771 384.63C132.168 385.956 136.359 387.851 140.185 390.536ZM141.664 391.66C141.942 391.877 142.23 392.088 142.514 392.314C147.606 396.567 151.671 401.921 154.86 407.735C154.683 407.81 154.539 407.943 154.504 408.131C153.678 411.496 154.688 415.588 154.538 419.073C154.37 422.982 153.36 426.84 153.484 430.738C149.735 428.552 145.994 426.335 142.276 424.067C144.632 419.031 144.861 412.619 144.633 407.151C144.442 402.296 143.936 396.224 141.664 391.66ZM71.3984 300.913C72.1351 300.3 72.8398 299.654 73.5151 299.115C75.6553 297.381 77.7776 295.592 79.7344 293.627C83.2138 290.136 86.1857 286.184 87.2199 281.369C90.404 282.402 93.5923 283.42 96.7765 284.454C97.1114 284.884 97.6027 285.134 98.1096 285.208C91.1901 293.486 81.7123 298.991 71.3984 300.913ZM54.219 300.779C52.5257 300.437 50.8826 300.001 49.2563 299.504C50.2667 299.304 51.2298 299.067 52.0438 298.862C55.9364 297.916 59.6369 296.199 62.9372 293.961C68.8583 289.948 73.718 284.341 77.0147 278.007C80.0776 279.031 83.1393 280.031 86.2161 281.035C84.321 285.086 81.7398 288.725 78.5395 291.889C76.8633 293.553 75.0563 295.123 73.2258 296.629C70.9808 298.475 68.5932 299.91 66.258 301.574C62.2886 301.84 58.2464 301.592 54.219 300.779ZM44.6651 297.836C39.8292 295.828 35.3275 293.114 31.235 289.869C32.876 289.893 34.5397 289.684 35.9973 289.475C39.272 289.01 42.4236 288.032 45.4116 286.63C52.0347 283.511 57.8101 278.469 62.4734 272.857C64.7064 273.695 66.9436 274.517 69.1739 275.304C71.4195 276.095 73.6693 276.871 75.9387 277.636C72.1017 283.088 67.9823 288.339 62.4265 292.131C59.5447 294.106 56.3586 295.659 53.0119 296.657C51.1302 297.21 49.2238 297.583 47.2717 297.762C46.3953 297.834 45.5177 297.79 44.6651 297.836ZM20.0557 278.478C24.4285 278.512 29.4243 276.938 33.0253 275.524C38.0846 273.54 43.0969 270.586 46.6125 266.364C51.4481 268.552 56.3537 270.546 61.2623 272.408C56.5479 276.976 51.7236 281.464 45.7585 284.378C42.7536 285.841 39.5182 286.943 36.2072 287.482C33.664 287.894 31.0668 287.483 28.5534 287.607C25.4477 284.848 22.5919 281.78 20.0557 278.478ZM13.6411 268.423C13.4744 268.13 13.3328 267.836 13.1912 267.541C20.5097 268.008 28.086 264.657 33.4807 259.831C37.4358 262.016 41.4972 264.024 45.6173 265.909C41.3735 269.123 37.1372 272.101 32.0657 273.95C29.5299 274.875 26.8998 275.543 24.241 275.956C22.3403 276.248 20.3957 276.191 18.5036 276.362C16.707 273.815 15.0708 271.165 13.6411 268.423ZM7.36521 252.615C8.84264 252.964 10.46 253.014 11.8404 253.056C14.8187 253.16 17.7464 252.697 20.6025 251.836C24.4354 254.556 28.4624 257.049 32.5999 259.35C29.6729 261.608 26.2843 263.419 22.833 264.528C19.3077 265.667 15.9263 265.831 12.3627 265.88C10.313 261.616 8.6607 257.165 7.36521 252.615ZM4.30583 237.692C8.77147 242.547 13.7508 246.851 19.0596 250.735C16.845 251.271 14.5905 251.531 12.299 251.477C10.4908 251.432 8.61817 250.843 6.81591 250.626C5.69259 246.379 4.8717 242.05 4.30583 237.692ZM61.9649 241.36C78.2078 248.502 91.918 262.346 95.7318 279.89C76.5728 273.708 57.3398 267.645 39.2754 258.708C26.8687 252.564 15.5807 244.867 5.53309 235.443C24.4204 233.378 44.3107 233.598 61.9649 241.36ZM89.2081 147.005C88.0595 145.849 86.8914 144.703 85.7234 143.558C89.3745 136.893 91.3929 128.765 90.7121 121.047C91.2157 122.182 91.6649 123.336 92.0709 124.527C94.655 132.093 95.9018 142.579 92.4714 150.359C91.3897 149.229 90.3038 148.114 89.2081 147.005ZM64.5525 160.805C55.9025 160.178 47.9859 155.501 42.0152 149.408C34.8571 142.09 30.1269 132.68 26.2297 123.327C22.6445 114.727 19.833 105.829 17.7714 96.7508C33.3933 106.663 48.9991 116.275 63.3679 128.05C72.9796 135.912 82.1207 144.378 90.7064 153.366C82.2072 157.048 74.2429 161.512 64.5525 160.805ZM17.1966 94.1951C21.1452 93.9148 25.1759 93.6653 29.2273 93.5204C31.6731 96.8221 33.6155 100.306 34.9749 104.174C29.2821 100.728 23.4273 97.5421 17.3444 94.8866C17.2919 94.6579 17.2491 94.4238 17.1966 94.1951ZM40.705 93.5091C44.0722 99.4538 46.2383 105.603 47.6105 112.333C46.7701 111.764 45.9353 111.205 45.0949 110.635C42.3094 108.781 39.4903 106.958 36.6238 105.188C35.3807 100.957 33.4934 97.002 30.8893 93.4672C34.1493 93.3845 37.4342 93.3911 40.705 93.5091ZM53.3296 94.8106C54.6918 98.7284 56.1322 102.511 56.9019 106.637C57.7088 110.986 57.9584 115.356 57.953 119.754C54.8507 117.433 51.7108 115.16 48.5149 112.97C48.6962 112.879 48.8232 112.717 48.7958 112.487C48.1755 105.898 45.974 99.3678 42.6775 93.6156C46.2546 93.8179 49.816 94.1973 53.3296 94.8106ZM66.0324 98.3168C66.2455 99.8503 66.7093 101.37 66.9614 102.882C67.4381 105.765 67.7657 108.681 67.9023 111.602C68.166 116.7 67.7969 121.822 67.2999 126.9C67.29 126.996 67.3136 127.061 67.3525 127.129C64.6275 124.904 61.8648 122.726 59.0645 120.595C59.9811 112.37 58.8829 102.873 55.3572 95.1959C58.9988 95.9433 62.5745 96.9609 66.0324 98.3168ZM68.1831 99.2139C70.3629 100.185 72.5145 101.288 74.5906 102.577C75.7873 103.318 76.9324 104.128 78.0494 104.979C78.1974 110.079 78.7315 115.062 78.4628 120.178C78.1987 125.098 77.5416 130.1 76.4572 134.917C73.5365 132.325 70.5684 129.786 67.5681 127.304C67.8145 127.396 68.142 127.314 68.2164 127.013C69.4437 121.765 69.7866 116.438 69.5779 111.05C69.4809 108.494 69.2489 105.95 68.8621 103.43C68.664 102.082 68.5051 100.621 68.1831 99.2139ZM88.6883 117.079C88.6365 121.736 88.6909 126.216 87.9299 130.876C87.2705 134.896 86.2557 138.95 84.9753 142.832C82.4555 140.4 79.8925 138.006 77.2973 135.668C79.9042 126.417 81.4924 115.896 79.6852 106.311C83.2695 109.366 86.322 113.008 88.6883 117.079ZM109.747 81.2552C107.337 72.5173 107.337 63.2488 109.695 54.5141C110.459 51.6759 111.433 48.9371 112.604 46.2935C112.613 46.7409 112.628 47.198 112.611 47.6467C112.57 49.6868 112.619 51.7271 112.744 53.7633C113.036 58.0953 113.696 62.4127 114.756 66.6182C116.746 74.6388 120.036 83.0833 125.389 89.476C125.453 89.543 125.526 89.5795 125.592 89.6061C124.332 93.9551 123.219 98.3366 122.275 102.765C116.758 96.2195 112.1 89.7547 109.747 81.2552ZM114.66 47.1151C114.702 45.4625 115.023 44.0265 114.444 42.5326C117.196 37.3747 120.7 32.6548 124.732 28.41C122.998 43.1497 122.209 59.1876 131.897 71.3629C129.666 76.936 127.671 82.6072 125.962 88.3487C122.198 80.9105 118.549 73.743 116.596 65.5595C115.605 61.3402 114.962 57.0519 114.735 52.7216C114.639 50.8498 114.615 48.9894 114.66 47.1151ZM137.753 17.5941C137.019 19.8471 136.714 22.4244 136.382 24.5655C135.819 28.0522 135.541 31.5842 135.54 35.1266C135.562 41.8228 136.321 49.1087 139.136 55.2639C139.147 55.2835 139.168 55.2975 139.179 55.317C136.687 60.2497 134.377 65.2735 132.297 70.3856C123.729 57.225 124.831 41.3968 126.683 26.4344C130.073 23.1496 133.803 20.189 137.753 17.5941ZM144.061 13.8523C147.069 12.2583 150.157 10.8514 153.32 9.62153C149.11 17.871 148.03 27.9215 149.72 36.9141C146.214 42.3586 142.965 47.9807 139.99 53.7442C138.812 47.3561 137.494 41.1767 137.579 34.6007C137.616 31.2576 137.929 27.8999 138.481 24.5998C138.977 21.7457 140.201 18.7873 140.439 15.9115C141.633 15.194 142.838 14.4959 144.061 13.8523ZM162.403 6.60267C161.594 8.58796 161.236 10.9116 160.962 12.8382C160.616 15.297 160.042 18.558 161.142 20.8795C157.39 25.6629 153.833 30.6069 150.505 35.7049C149.46 26.2554 151.256 17.5556 155.194 8.91806C157.557 8.05279 159.965 7.29077 162.403 6.60267ZM176.291 3.60525C171.354 8.62266 166.679 13.9181 162.253 19.4468C162.593 17.1594 162.298 14.5736 162.716 12.3323C163.114 10.1928 164.034 8.13124 164.52 6.03232C168.399 5.01605 172.335 4.21302 176.291 3.60525ZM143.589 87.9049C138.266 92.8573 132.397 96.621 126.407 100.467C127.796 94.2993 129.54 88.1887 131.631 82.1652C139.614 59.103 152.031 37.707 166.802 18.3596C170.199 13.9071 173.633 9.47276 177.105 5.08167C179.427 35.6118 165.797 67.2113 143.589 87.9049ZM138.742 144.267C138.756 139.657 138.95 135.023 139.661 130.456C140.841 122.74 143.606 115.493 147.93 108.989C156.958 95.4011 171.076 86.4691 185.668 79.8265C189.876 77.9121 194.174 76.1792 198.471 74.5117C200.491 73.725 206.981 70.0993 209.557 71.6984C203.04 76.3218 197.128 82.1911 191.517 87.6821C184.57 94.5021 177.884 101.6 171.556 109.011C159.294 123.364 148.442 138.971 139.077 155.374C138.937 155.492 138.809 155.63 138.707 155.792C139.059 151.959 138.722 148.117 138.742 144.267ZM209.832 79.8152C209.556 81.9885 209.245 84.1687 208.895 86.346C208.761 87.2236 208.607 88.1123 208.454 89.001C202.802 90.9215 197.336 91.8713 191.409 92.0354C194.942 88.4109 198.569 84.8619 202.203 81.3478C204.948 78.7011 207.852 76.1968 210.601 73.5348C210.847 75.3986 210.049 78.1532 209.832 79.8152ZM206.441 99.2973C206.15 100.626 205.844 101.951 205.532 103.265C205.408 102.819 205.003 102.493 204.411 102.701C196.516 105.47 188.751 105.763 180.767 103.58C183.876 100.029 187.049 96.5441 190.331 93.1392C196.16 94.0522 202.498 93.3177 208.055 91.2311C207.571 93.9237 207.027 96.6245 206.441 99.2973ZM202.479 114.231C200.733 114.409 199.014 115.18 197.307 115.517C194.454 116.066 191.538 116.277 188.634 116.144C183.183 115.896 178.441 114.054 173.403 112.304C175.507 109.712 177.664 107.167 179.848 104.646C187.728 107.895 197.081 107.941 204.943 104.57C205.076 104.507 205.187 104.431 205.278 104.341C204.471 107.669 203.568 110.988 202.479 114.231ZM199.425 121.901C198.766 123.309 198.024 124.662 197.254 125.966C197.223 125.958 197.193 125.949 197.168 125.95C195.024 125.657 193.051 126.843 190.933 127.208C187.673 127.768 184.233 127.579 181.009 126.93C175.766 125.865 171.046 123.676 166.267 121.429C168.371 118.63 170.521 115.869 172.719 113.146C176.871 116.473 182.569 117.86 187.755 118.324C190.556 118.593 193.394 118.518 196.184 118.108C197.746 117.879 199.741 117.662 201.474 117.052C200.848 118.7 200.171 120.326 199.425 121.901ZM186.82 138.31C186.759 138.293 186.692 138.266 186.637 138.259C184.082 137.993 181.448 138.676 178.867 138.657C176.199 138.623 173.54 138.286 170.901 137.848C166.176 137.057 161.649 135.366 156.971 134.432C159.706 130.382 162.536 126.407 165.464 122.493C170.442 125.726 176.059 128.516 181.9 129.565C184.734 130.073 187.613 130.207 190.469 129.824C192.058 129.618 194.007 129.389 195.561 128.622C193.098 132.22 190.183 135.454 186.82 138.31ZM169.642 149.719C168.78 149.589 167.93 149.684 166.967 149.65C164.807 149.599 162.666 149.265 160.589 148.701C156.914 147.714 154.012 145.654 150.701 144.034C152.521 141.124 154.399 138.247 156.313 135.388C161.051 137.813 166.602 139.465 171.749 140.52C174.938 141.176 179.135 141.878 182.818 141.426C178.659 144.45 174.196 147.233 169.642 149.719ZM162.674 153.255C159.126 154.897 155.279 156.335 151.374 156.759C148.648 157.054 146.086 156.637 143.543 155.937C145.649 152.257 147.829 148.64 150.071 145.038C152.391 147.688 155.984 149.213 159.264 150.256C160.926 150.771 163.435 151.503 165.821 151.724C164.773 152.242 163.734 152.756 162.674 153.255ZM192.83 203.223C192.943 208.807 194.445 214.584 196.397 219.744C198.29 224.73 200.896 230.564 204.959 234.188C203.242 237.801 201.602 241.461 200.06 245.156C200.004 245.149 199.933 245.137 199.868 245.136C186.79 235.199 186.775 217.316 192.83 203.223ZM193.775 201.16C194.019 200.633 194.283 200.121 194.557 199.604C196.603 195.751 199.008 192.096 201.772 188.779C201.424 190.825 201.434 193.069 201.449 194.935C201.462 198.366 201.908 201.809 202.756 205.14C203.555 208.318 204.752 211.4 206.29 214.287C207.381 216.342 209.168 220.393 211.676 221.01C211.384 221.564 211.071 222.103 210.778 222.657C208.968 226.039 207.226 229.473 205.56 232.928C203.14 228.125 200.028 223.858 198.128 218.721C196.094 213.259 195.337 207.769 194.657 202.029C194.592 201.484 194.179 201.189 193.775 201.16ZM211.719 179.646C213.392 178.475 215.13 177.397 216.895 176.367C215.362 181.078 214.939 186.217 215.383 191.11C215.803 195.667 216.78 202.609 220.317 205.923C217.45 210.695 214.662 215.537 211.992 220.429C211.703 218.241 209.377 216.035 208.355 214.147C206.787 211.276 205.602 208.215 204.764 205.059C203.925 201.903 203.465 198.662 203.415 195.394C203.369 192.292 204.293 189.168 204.159 186.116C206.44 183.721 208.964 181.549 211.719 179.646ZM219.073 175.154C222.933 173.037 226.952 171.153 230.942 169.31C228.496 176.208 227.747 183.524 229.854 190.638C226.747 195.442 223.707 200.298 220.742 205.216C220.357 203.289 219.378 201.454 218.79 199.579C217.908 196.823 217.312 193.981 217.077 191.09C216.62 185.585 217.54 180.408 219.073 175.154ZM233.663 168.074C235.635 167.159 237.603 166.234 239.537 165.251C238.607 168.546 238.612 172.667 239.762 175.529C237.328 179.201 234.919 182.871 232.507 186.557C231.796 187.646 231.085 188.736 230.383 189.82C228.912 182.461 229.524 174.835 233.279 168.24C233.402 168.183 233.54 168.131 233.663 168.074ZM252.209 157.231C248.209 162.918 244.309 168.691 240.46 174.486C240.469 172.865 240.342 171.256 240.462 169.65C240.592 167.766 241.128 166.027 241.489 164.231C245.274 162.209 248.9 159.953 252.209 157.231ZM255.095 181.094C255.682 189.693 256.603 198.424 255.389 207.012C254.171 215.616 250.597 222.78 244.932 229.311C242.161 232.502 239.12 235.446 236.062 238.361C232.957 241.329 229.806 244.284 225.985 246.289C218.76 250.099 210.868 249.442 203.587 246.588C211.462 227.336 221.968 209.212 232.915 191.547C239.771 180.475 247.046 169.642 253.62 158.394C254.112 165.961 254.588 173.523 255.095 181.094ZM282.395 363.515C286.501 344.518 301.966 332.299 316.571 321.021C325.405 314.202 334.243 307.367 343.077 300.547C324.677 335.686 307.067 371.69 293.662 409.117C283.826 396.089 278.895 379.737 282.395 363.515ZM348.107 314.982C346.163 316.062 344.533 317.829 342.586 318.949C339.991 320.451 337.218 321.277 334.447 322.31C337.827 315.192 341.213 308.083 344.557 300.946C346.127 305.547 347.294 310.235 348.107 314.982ZM349.275 324.556C348.276 325.253 347.297 326.03 346.27 326.678C344.548 327.761 342.743 328.723 340.899 329.59C337.134 331.33 333.174 332.522 329.157 333.5C330.711 330.212 332.255 326.93 333.815 323.652C333.855 323.655 333.891 323.673 333.941 323.671C336.983 323.544 339.977 322.358 342.642 320.934C344.456 319.967 346.88 318.64 348.413 316.929C348.805 319.459 349.087 322 349.275 324.556ZM349.592 338.337C347.561 339.582 345.788 341.301 343.737 342.558C341.556 343.901 339.269 345.059 336.876 346.007C332.112 347.875 326.986 348.902 321.878 349.234C322.982 346.836 324.07 344.433 325.179 342.044C326.364 339.471 327.574 336.895 328.784 334.32C332.894 333.87 336.833 332.755 340.638 331.109C343.371 329.917 346.79 328.387 349.401 326.346C349.66 330.322 349.714 334.325 349.592 338.337ZM348.593 351.983C338.065 357.981 327.088 362.032 315.232 364.921C314.756 365.038 314.857 365.852 315.351 365.79C326.851 364.319 338.336 360.07 348.357 354.089C348.039 356.665 347.661 359.227 347.261 361.773C346.817 364.513 346.385 367.297 345.873 370.101C339.778 372.921 333.903 375.631 327.263 377.062C321.482 378.299 315.32 379.071 309.657 377.085C313.446 368.05 317.392 359.088 321.456 350.172C321.519 350.214 321.601 350.245 321.691 350.245C327.417 350.364 332.913 349.307 338.212 347.108C341.928 345.577 346.495 343.432 349.513 340.424C349.356 344.283 349.03 348.139 348.593 351.983ZM340.518 387.628C338.104 388.653 335.79 390.059 333.351 390.995C330.025 392.28 326.59 393.28 323.109 393.997C316.232 395.42 309.363 395.472 302.417 395.002C304.639 389.254 306.953 383.532 309.324 377.841C313.999 380.634 319.792 380.008 325.015 379.15C331.893 378.024 339.278 375.95 345.44 372.407C344.376 377.691 342.935 382.905 340.518 387.628ZM319.909 405.726C312.505 408.699 304.851 409.597 297.038 409.374C298.607 404.977 300.253 400.602 301.935 396.243C308.913 397.52 316.169 397.196 323.128 395.893C326.791 395.202 330.417 394.196 333.907 392.882C335.367 392.336 336.975 391.756 338.518 391.086C334.082 397.756 327.293 402.764 319.909 405.726ZM465.714 485.787C465.704 485.792 465.694 485.798 465.694 485.798C465.243 485.527 464.653 485.489 464.045 485.782C446.378 494.333 426.214 496.108 408.464 504.513C399.925 508.556 392.29 514.212 386.626 521.814C380.92 529.477 376.91 538.601 374.054 547.685C371.64 555.346 370.016 565.121 374.147 572.386C374.094 572.52 374.065 572.651 374.058 572.797C373.95 574.288 374.201 575.525 374.697 576.557C361.273 595.568 349.544 615.767 339.733 636.886C335.803 645.332 332.196 653.916 328.914 662.637C326.846 668.156 324.565 673.847 322.843 679.632C322.886 659.557 320.463 639.391 315.681 619.508C309.087 592.008 299.636 565.116 289.927 538.59C285.391 526.183 280.609 513.865 275.64 501.627C277.388 487.979 279.158 474.485 282.051 461.012C284.964 447.436 288.736 434.055 293.082 420.863C293.815 418.655 294.55 416.472 295.32 414.282C311.376 416.324 329.701 410.066 340.027 397.623C346.816 389.434 349.08 379.513 350.622 369.229C352.342 357.737 353.694 346.119 353.62 334.469C353.535 321.371 351.737 308.304 346.895 296.062C346.482 295.017 345.105 294.094 344.008 294.937C334.484 302.292 324.95 309.652 315.425 317.006C307.412 323.179 299.241 329.324 292.422 336.847C280.08 350.47 274.844 368.273 278.753 386.372C280.625 395.048 284.646 403.302 290.912 409.573C289.655 410.635 289.804 413.282 291.79 413.685C291.867 413.706 291.953 413.722 292.024 413.733C287.281 427.383 283.101 441.228 279.656 455.299C276.561 467.987 273.854 481.083 272.575 494.169C267.811 482.678 262.874 471.246 257.756 459.905C246.031 433.854 233.17 408.282 219.662 383.117C210.752 366.492 201.36 350.155 191.981 333.797C191.404 329.239 190.673 324.704 190.311 320.114C189.818 314.022 189.786 307.899 190.158 301.806C190.946 288.833 193.635 276.045 197.451 263.65C198.749 259.435 200.201 255.287 201.772 251.188C207.62 254.249 214.686 254.794 221.147 253.434C230.278 251.5 236.824 244.792 243.119 238.368C249.471 231.887 255.205 224.659 257.881 215.847C260.516 207.213 260.047 197.914 259.494 189.012C258.744 176.835 257.82 164.667 256.97 152.495C257.069 152.283 257.029 152.099 256.926 151.964C256.775 150.447 254.857 149.482 253.718 150.75C241.165 164.752 221.785 168.222 207.403 179.644C194.369 190.003 184.045 208.812 186.558 225.817C187.727 233.735 191.762 241.149 198.313 245.696C197.353 246.462 196.947 247.882 198.171 248.854C198.275 248.924 198.385 249.003 198.48 249.079C192.434 264.46 188.149 280.483 186.562 297.026C185.889 304.066 185.742 311.169 186.197 318.239C186.347 320.39 186.513 322.545 186.764 324.69C183.888 319.655 181.022 314.615 178.176 309.563C156.682 271.307 136.44 231.072 127.177 188.019C131.489 178.471 136.181 169.094 141.259 159.963C146.612 162.879 153.572 161.829 159.157 159.882C167.142 157.113 174.699 152.48 181.725 147.864C189.246 142.916 195.352 136.911 199.693 128.961C203.888 121.276 206.505 112.86 208.493 104.361C210.754 94.6602 212.606 84.6492 213.299 74.6897C213.389 73.4622 213.294 72.2495 212.925 71.1923C214.225 69.82 210.051 68.4317 209.423 68.3493C205.632 67.8162 201.11 70.5423 197.717 71.89C180.439 78.7407 163.089 87.1452 150.858 101.597C144.879 108.668 140.43 116.95 138.488 126.03C137.413 131.023 136.993 136.148 136.96 141.247C136.93 146.305 136.86 151.567 137.946 156.521C137.982 156.721 138.136 156.788 138.291 156.765C133.795 164.738 129.561 172.923 125.836 181.297C124.331 173.311 123.217 165.219 122.567 157.032C121.218 140.051 122.014 123.026 125.181 106.399C132.029 103.449 138.26 98.6391 143.842 93.849C150.17 88.4155 155.782 82.1999 160.666 75.4543C170.359 62.0578 177.186 46.2323 179.549 29.8288C180.881 20.5147 180.993 11.0791 179.912 1.72708C179.831 0.971613 179.24 0.0671875 178.341 0.190444C157.12 3.10462 135.994 11.2519 121.382 27.471C108.77 41.4807 101.878 60.691 106.295 79.4311C108.408 88.4414 113.262 98.5689 121.154 103.996C120.457 104.884 120.67 106.236 121.431 106.915C119.965 114.651 118.991 122.457 118.582 130.303C117.537 149.731 119.438 168.932 123.431 187.745C123.432 187.77 123.433 187.795 123.444 187.815C123.569 188.352 123.674 188.9 123.798 189.437C119.571 182.003 113.874 175.095 108.521 168.521C104.164 163.152 99.6081 157.935 94.8809 152.893C96.6373 150.847 97.2205 148.124 97.6618 145.288C98.2751 141.346 98.387 137.339 97.9124 133.369C96.9937 125.438 94.1147 117.716 89.3818 111.255C79.8202 98.1426 63.9432 92.0978 48.2585 90.481C37.2273 89.3465 26.2756 90.3512 15.2589 91.1732C14.1819 91.2556 13.5506 92.1446 13.7576 93.1903C16.1319 104.909 19.7174 116.327 24.5353 127.276C28.7512 136.849 33.9339 146.35 41.7555 153.472C48.2975 159.434 56.647 163.645 65.597 163.959C74.7184 164.28 84.7974 160.604 91.8673 154.658C91.8979 154.667 91.9285 154.675 91.9536 154.674C95.8966 158.882 99.7391 163.186 103.442 167.609C110.332 175.842 116.206 184.899 123.071 193.133C123.555 193.711 124.212 193.596 124.648 193.18C131.8 223.73 144.317 253.195 158.582 280.942C165.856 295.098 173.647 308.959 181.53 322.754C179.027 320.351 176.313 318.146 173.778 316.097C168.556 311.866 162.981 308.081 157.162 304.707C145.204 297.74 132.336 292.466 119.334 287.798C112.856 285.471 106.307 283.313 99.7345 281.182C97.5239 266.798 88.4529 254.298 76.8769 245.73C63.7412 236.033 47.5445 231.902 31.439 231.067C21.7551 230.576 12.0787 231.256 2.47243 232.491C2.23882 232.262 2.0052 232.033 1.766 231.794C1.01098 231.034 -0.434373 232.127 0.271702 233.006C0.406516 233.175 0.556675 233.348 0.69704 233.527C0.611701 233.717 0.558383 233.941 0.587154 234.197C2.78967 255.178 10.4793 276.335 26.8332 290.42C40.7072 302.348 59.9333 308.376 77.7412 302.412C86.65 299.428 95.0709 293.632 99.9605 285.487C116.661 290.934 133.277 296.688 148.874 304.831C155.577 308.349 162.086 312.3 168.126 316.88C171.148 319.195 174.076 321.641 176.842 324.257C179.744 326.975 182.281 330.096 185.367 332.594C185.982 333.085 186.711 333.071 187.253 332.775C187.891 333.874 188.524 334.987 189.152 336.091C189.53 337.233 189.953 338.363 190.44 339.469C190.624 339.907 191.065 340.161 191.494 340.188C194.331 345.155 197.158 350.127 199.946 355.121C213.885 380.068 226.993 405.461 239.153 431.323C250.161 454.726 260.536 478.515 270.182 502.591C260.59 494.128 249.601 486.911 238.966 480.021C226.343 471.838 213.311 464.301 200.194 456.953C188.91 450.625 177.552 444.417 166.266 438.064C168.525 433.018 166.107 426.197 164.585 421.272C162.304 413.921 159.117 406.749 154.742 400.395C150.634 394.419 145.438 389.165 139.168 385.453C132.019 381.219 123.838 379.575 115.679 378.63C104.575 377.369 93.3923 376.876 82.2278 377.007C80.9558 377.019 80.3826 378.146 80.5575 379.249C83.3861 398.401 86.4345 419.211 98.6338 434.986C107.752 446.774 122.807 456.143 138.201 454.409C147.676 453.352 156.724 448.001 163.307 441.13C163.695 441.154 164.097 441.042 164.442 440.717C186.736 453.368 209.439 465.329 231.192 478.913C238.193 483.296 245.081 487.845 251.806 492.629C258.875 497.655 265.547 503.165 272.484 508.368C283.317 535.803 293.189 563.615 301.939 591.705C310.195 618.22 316.652 645.32 317.358 673.189C317.394 674.729 317.414 676.263 317.424 677.804C303.396 650.202 277.891 630.518 251.405 615.516C233.212 605.217 214.015 596.946 195.058 588.189C199.134 574.25 189.222 560.158 178.813 551.553C167.554 542.248 153.659 536.282 139.193 534.355C136.859 534.044 134.533 533.86 132.2 533.756C131.962 533.428 131.497 533.473 131.198 533.72C125.661 533.57 120.128 533.971 114.624 534.923C113.628 535.103 113.395 536.33 113.781 537.077C118.394 545.962 119.985 555.894 123.335 565.239C125.986 572.673 129.791 579.66 134.873 585.713C144.461 597.168 158.759 604.139 173.843 601.722C180.532 600.65 187.96 597.651 192.108 592.019C192.731 592.207 193.433 592.078 193.813 591.475C194.881 591.989 195.933 592.498 196.995 593.003C226.557 607.145 257.051 620.063 282.408 641.326C296.42 653.087 308.189 667.128 315.957 683.766C316.28 684.447 316.792 684.735 317.346 684.755C316.79 706.178 313.242 727.497 306.8 747.952C304.834 754.172 302.597 760.302 300.112 766.315C298.712 769.714 303.74 772.537 305.155 769.117C315.535 744.003 321.222 717.768 322.552 691.253C322.757 691.136 322.933 690.947 323.079 690.657C326.436 683.362 328.495 675.464 331.231 667.917C334.086 660.057 337.198 652.283 340.546 644.632C347.077 629.696 354.576 615.188 362.929 601.185C367.412 593.688 372.144 586.358 377.112 579.191C381.354 581.948 388.931 581.53 393.148 581.13C404.353 580.093 415.552 577.797 425.336 571.99C442.719 561.668 453.323 543.307 459.202 524.475C462.938 512.506 464.9 499.987 466.471 487.573C466.514 487.24 466.467 486.93 466.378 486.659C466.786 486.196 466.292 485.395 465.714 485.787Z" fill="#448862"/>
</svg>
