<svg width="322" height="519" viewBox="0 0 322 519" fill="none" xmlns="http://www.w3.org/2000/svg">
<path d="M272.721 247.62C252.278 250.016 231.891 251.774 211.273 251.839C190.427 251.904 169.792 250.082 149.057 248.271C152.932 243.124 156.848 238.005 160.748 232.883C160.581 233.143 160.635 233.547 161.028 233.664C197.761 244.497 239.054 241.356 274.662 227.897C283.373 224.606 292.558 220.886 300.475 215.749C298.267 218.634 296.021 221.477 293.737 224.277C287.874 231.486 281.678 238.419 275.183 245.067C274.377 245.885 273.53 246.731 272.721 247.62ZM271.989 262.101C272.389 262.435 272.784 262.726 273.202 262.992C269.623 264.236 266.21 265.893 262.558 266.984C258.533 268.186 254.402 269.055 250.259 269.665C241.907 270.885 233.448 271.105 225.016 270.978C206.008 270.696 187.009 269.284 168.159 266.952C158.229 265.722 148.325 264.211 138.441 262.628C141.76 258.034 145.152 253.469 148.571 248.929C148.617 249 148.686 249.046 148.78 249.061C169.317 252.586 190.466 253.46 211.281 253.393C231.262 253.33 251.465 252.258 271.271 249.378C270.019 251.07 269.047 252.932 268.878 255.082C268.662 257.836 269.896 260.353 271.989 262.101ZM274.352 263.874C274.413 263.827 274.461 263.77 274.51 263.711C279.588 266.063 285.226 263.77 290.007 260.845C288.984 266.182 287.128 271.161 284.644 275.805C275.111 278.878 265.664 281.87 255.852 283.975C245.349 286.222 234.705 287.779 223.987 288.576C203.148 290.138 182.09 288.922 161.573 284.894C150.526 282.722 139.638 279.708 129.004 276.053C131.901 271.815 134.837 267.617 137.841 263.467C155.952 267.157 174.371 269.395 192.785 270.861C211.024 272.31 229.894 273.715 248.145 271.528C252.544 270.998 256.927 270.222 261.199 269.073C265.626 267.891 270.535 266.49 274.352 263.874ZM258.44 304.146C250.201 304.944 241.984 305.903 233.706 306.422C224.17 307.007 214.605 307.277 205.058 307.236C185.64 307.143 166.217 305.731 146.988 303.048C136.357 301.573 125.785 299.632 115.271 297.479C119.448 290.472 123.86 283.626 128.438 276.89C167.407 291.308 210.79 294.365 251.536 286.507C262.271 284.428 273.18 281.761 283.481 277.894C277.388 288.276 268.203 296.928 258.44 304.146ZM245.345 312.96C241.575 315.282 237.675 317.359 234.199 320.105C233.663 320.52 233.117 320.978 232.582 321.45C232.547 321.459 232.499 321.456 232.449 321.462C221.65 323.293 210.982 325.363 200.045 326.37C189.24 327.372 178.392 327.741 167.566 327.482C156.628 327.212 145.72 326.286 134.886 324.776C129.605 324.033 124.347 323.142 119.111 322.105C114.001 321.091 108.883 319.979 104.391 317.267C106.21 313.644 108.115 310.064 110.064 306.503C111.606 303.729 113.19 300.983 114.802 298.255C152.385 307.01 191.507 309.963 230.006 307.995C238.639 307.552 247.359 307.026 255.971 305.934C252.506 308.395 248.96 310.73 245.345 312.96ZM226.56 339.726C228.868 343.59 232.945 344.932 237.323 345.031C222.209 355.599 203.979 359.779 186.019 362.584C164.52 365.938 142.827 368.126 121.123 369.321C109.221 369.973 97.296 369.919 85.4081 370.518C86.3763 365.869 87.5145 361.257 88.8073 356.676C90.0927 352.122 91.5558 347.635 93.1535 343.195C125.848 356.315 163.143 354.946 197.037 347.701C207.001 345.578 216.91 342.99 226.56 339.726ZM239.437 344.992C241.808 344.849 244.175 344.417 246.343 343.874C242.279 352.832 236.589 360.796 229.835 367.802C221.452 372.059 213.245 376.573 204.621 380.391C195.054 384.627 185.241 388.317 175.276 391.476C155.828 397.647 135.743 401.869 115.432 403.832C103.978 404.94 92.4765 405.316 80.9735 405.269C80.9406 405.27 80.9361 405.287 80.9032 405.288C81.5106 394.012 82.8869 382.788 85.1473 371.735C96.0335 372.318 107.01 371.772 117.891 371.278C129.053 370.774 140.21 369.979 151.338 368.869C171.512 366.871 192.385 364.819 211.882 359.017C221.751 356.091 231.031 351.892 239.213 345.584C239.418 345.429 239.478 345.204 239.437 344.992ZM196.56 391.849C185.026 397.7 172.831 402.126 160.493 405.984C148.433 409.782 136.21 413.337 123.866 416.185C109.698 419.448 95.104 421.502 80.5511 420.177C80.5246 416.501 80.5792 412.828 80.7147 409.157C80.7644 408.18 80.8116 407.212 80.8584 406.246C80.9041 406.258 80.9346 406.267 80.9827 406.27C121.89 408.279 163.721 399.962 201.387 384.181C208.68 381.131 216.122 377.891 223.197 374.13C215.131 381.16 206.017 387.054 196.56 391.849ZM26.1145 387.332C12.9034 371.259 5.06747 351.256 3.61383 330.506C3.11358 323.485 3.37873 316.469 4.33796 309.542C4.93812 311.441 5.6945 313.306 6.37172 315.1C7.76988 318.77 9.31871 322.364 11.031 325.896C14.5102 333.06 18.6263 339.918 23.2057 346.446C32.478 359.687 43.4683 371.631 55.0374 382.875C61.6645 389.309 68.5185 395.505 75.4717 401.575C75.0427 407.924 74.8385 414.286 74.8798 420.645C55.8993 414.051 38.9625 402.934 26.1145 387.332ZM5.13856 304.484C6.73338 306.141 8.99736 307.189 11.4398 306.961C16.4969 306.471 19.3993 302.822 20.829 298.46C25.3907 312.176 34.5531 324.793 43.6672 335.582C54.4285 348.319 66.7719 359.838 79.6382 370.442C77.7683 379.611 76.4734 388.888 75.7048 398.209C75.6497 398.962 75.6098 399.72 75.5543 400.475C52.5817 378.951 29.2347 356.695 14.614 328.412C12.5492 324.43 10.6881 320.358 9.06528 316.188C7.62146 312.506 6.7178 308.452 5.0908 304.845C5.10658 304.725 5.12279 304.604 5.13856 304.484ZM20.1217 259.95C19.9974 254.144 20.0924 248.311 20.5518 242.518C23.6057 257.539 30.6156 272.163 38.3675 285.296C46.5155 299.081 56.483 311.798 67.9553 322.976C74.2802 329.139 81.2083 334.693 88.4282 339.767C87.6414 341.851 86.8975 343.958 86.1844 346.072C83.5935 353.732 81.4996 361.547 79.8392 369.448C68.1669 358.407 56.2854 347.598 45.904 335.269C40.3717 328.706 35.266 321.768 30.8693 314.375C27.251 308.278 24.4266 301.835 21.612 295.355C21.9285 293.444 22.0534 291.517 21.9727 289.748C21.5882 279.8 20.3225 269.914 20.1217 259.95ZM225.798 338.188C191.778 348.519 156.178 354.944 120.665 349.057C111.436 347.526 102.372 345.193 93.4992 342.269C96.5053 334.094 99.9965 326.117 103.867 318.309C110.342 322.752 118.711 323.843 126.276 325.196C134.663 326.704 143.11 327.806 151.585 328.502C169.078 329.933 186.72 329.713 204.169 327.84C212.801 326.915 221.609 325.817 230.094 323.857C226.405 327.823 223.65 332.934 225.798 338.188ZM20.7341 240.376C21.0985 236.642 21.6046 232.927 22.3464 229.245C24.2629 219.597 27.7043 210.406 33.0789 202.218C33.0865 203.468 33.1394 204.732 33.2572 205.996C32.9724 206.024 32.7077 206.221 32.7434 206.575C34.1021 223.175 40.4235 239.516 47.8831 254.287C55.4418 269.298 65.3576 283.182 76.937 295.361C83.4924 302.246 90.5873 308.699 98.3236 314.22C98.8032 314.561 99.4189 313.785 98.9663 313.404C86.0416 302.776 74.367 291.012 64.6539 277.346C55.0341 263.819 47.2285 248.878 41.7352 233.22C40.0265 228.336 38.5697 223.364 37.1831 218.373C40.9904 223.887 48.0164 225.241 53.6474 221.574C54.3009 221.144 54.8983 220.68 55.4703 220.189C56.1106 223.156 57.5384 226.228 58.5227 228.824C59.9818 232.693 61.6018 236.508 63.375 240.239C66.9631 247.788 71.2037 255.033 76.0144 261.855C80.7195 268.522 85.9204 274.861 91.7194 280.612C97.1955 286.046 103.329 292.069 110.152 295.886C109.908 296.311 109.633 296.727 109.374 297.147C101.34 310.39 94.3152 324.249 88.8206 338.729C63.7514 319.978 43.4943 294.833 30.7945 266.199C27.1127 257.903 24.328 249.243 21.2418 240.734C21.1496 240.469 20.9487 240.367 20.7341 240.376ZM63.7911 183.291C64.687 189.87 67.572 196.574 69.9923 202.637C72.7103 209.477 75.8841 216.138 79.4652 222.557C86.7689 235.597 95.7601 247.696 106.169 258.399C111.707 264.09 117.713 269.982 124.384 274.363C119.663 281.089 115.092 287.922 110.755 294.914C105.269 289.699 99.1893 285.179 93.9248 279.686C88.1116 273.623 82.6966 267.17 77.8923 260.263C73.304 253.646 69.2239 246.655 65.7384 239.393C63.919 235.591 62.2524 231.706 60.7665 227.755C59.6349 224.735 58.9519 221.074 57.4648 218.102C61.9231 212.542 62.3445 204.578 62.6363 197.523C62.8361 192.76 63.2266 188.016 63.7911 183.291ZM64.0625 181.121C64.7902 175.666 65.7704 170.243 67.0306 164.87C67.9891 160.806 69.0853 156.776 70.3168 152.789C70.7642 155.319 71.4985 157.814 72.2018 160.302C73.3332 164.359 74.5883 168.38 75.9526 172.358C78.6918 180.275 81.9182 188.018 85.593 195.548C93.066 210.878 102.351 225.474 113.357 238.514C119.671 245.997 126.443 253.045 133.928 259.383C134.391 259.786 135.069 259.141 134.618 258.694C110.275 234.614 90.8674 206.605 79.1372 174.291C77.555 169.909 76.1016 165.471 74.8069 160.989C73.6936 157.109 72.8941 153.093 71.4238 149.327C73.3556 143.518 75.572 137.803 78.0958 132.219C79.7112 137.33 82.2002 142.65 86.6622 145.416C86.5343 145.589 86.4603 145.804 86.5114 146.04C88.5671 155.534 92.7782 164.837 96.737 173.682C100.714 182.578 105.191 191.255 110.134 199.653C119.914 216.296 131.48 232.666 145.356 246.195C138.402 255.165 131.557 264.212 125.016 273.466C118.18 267.265 111.118 261.541 104.822 254.724C98.3943 247.787 92.5839 240.314 87.414 232.398C82.3708 224.679 77.9593 216.55 74.2148 208.124C72.1879 203.575 70.3814 198.933 68.7738 194.219C67.3345 189.973 66.3879 185.47 64.5695 181.36C64.4802 181.145 64.2684 181.084 64.0625 181.121ZM89.763 146.81C95.7823 148.573 101.202 145.391 104.842 140.814C106.545 148.643 109.746 156.297 112.838 163.631C116.336 171.941 120.367 180.028 124.861 187.848C133.608 203.051 144.207 218.22 157.054 230.236C157.474 230.616 158.014 230.061 157.669 229.645C151.931 222.754 146.009 216.059 140.752 208.774C135.678 201.717 130.919 194.398 126.615 186.843C122.297 179.278 118.423 171.457 115.006 163.45C111.622 155.507 109.192 147.227 106.002 139.225C106.856 137.925 107.596 136.564 108.16 135.19C110.199 130.32 111.007 125.051 112.321 119.963C113.175 116.718 114.181 113.512 115.275 110.34C115.432 112.677 116.163 115.002 116.994 117.378C118.766 122.45 120.749 127.469 122.773 132.457C126.669 142.083 130.91 151.577 135.458 160.9C144.859 180.114 155.61 198.917 168.253 216.197C168.348 216.33 168.479 216.388 168.623 216.4C161.142 226.058 153.534 235.641 146.034 245.31C133.38 230.384 121.42 215.241 111.582 198.266C106.775 189.971 102.413 181.414 98.5319 172.644C94.7005 163.994 91.9169 154.963 88.2795 146.259C88.7465 146.464 89.2488 146.659 89.763 146.81ZM127.526 84.7674C126.495 91.1706 127.734 98.3564 129.011 104.427C130.757 112.642 133.657 120.567 136.908 128.279C143.919 144.785 152.353 160.731 161.951 175.861C167.364 184.39 173.109 192.717 179.393 200.616C179.81 201.128 180.692 200.455 180.313 199.923C170.183 185.803 160.651 171.337 152.389 156.03C144.36 141.132 136.565 125.422 132.192 108.992C130.998 104.498 130.091 99.911 129.669 95.2765C129.233 90.7542 129.67 86.2634 129.458 81.7586C130.171 80.6806 130.898 79.6114 131.653 78.5563C134.521 74.4901 137.648 70.6093 140.987 66.9156C139.86 74.8963 141.315 83.0992 143.18 90.8719C145.229 99.3577 147.986 107.693 151.102 115.848C157.158 131.778 164.934 146.955 174.237 161.237C179.473 169.27 185.128 177.264 191.678 184.289C191.817 184.441 192.004 184.475 192.176 184.442C186.665 192.467 180.909 200.315 175.061 208.019C173.093 210.615 171.096 213.195 169.116 215.777C169.089 215.755 169.094 215.738 169.083 215.719C158.096 198.467 147.609 180.992 138.513 162.65C133.894 153.348 129.612 143.884 125.662 134.274C123.738 129.586 121.903 124.868 120.142 120.116C118.36 115.323 116.572 110.432 117.18 105.238C119.998 98.133 123.47 91.2618 127.526 84.7674ZM153.499 54.7353C154.206 61.1066 151.296 67.8251 155.509 73.5292C156.418 74.7629 157.569 75.7644 158.817 76.4641C158.32 79.7791 159.331 83.7394 159.873 86.8907C160.565 90.9435 161.515 94.9462 162.71 98.8859C165.076 106.733 168.332 114.307 172.146 121.56C180.586 137.664 191.777 152.632 203.469 166.52C203.558 166.614 203.647 166.651 203.74 166.666C200.219 172.443 196.513 178.118 192.683 183.704C192.663 183.658 192.658 183.614 192.622 183.568C182.786 170.117 173.206 156.806 165.558 141.945C157.909 127.09 151.569 111.608 147.077 95.5013C144.346 85.7268 143.027 75.9799 142.09 65.9016C142.09 65.8443 142.072 65.7889 142.037 65.7356C145.64 61.8468 149.478 58.1745 153.499 54.7353ZM168.478 73.6442C170.078 70.4127 170.661 66.5954 171.712 63.0994C172.824 79.0967 177.917 94.9095 184.622 109.391C191.61 124.462 201.007 138.944 212.962 150.574C210.21 155.73 207.316 160.81 204.264 165.808C194.04 151.307 183.033 137.48 174.657 121.745C170.832 114.533 167.561 107.017 165.134 99.2125C163.904 95.283 162.903 91.2877 162.16 87.241C161.788 85.1596 161.469 83.0614 161.234 80.9563C161.111 79.7733 161.072 78.52 160.89 77.31C163.757 78.0538 166.765 77.1176 168.478 73.6442ZM177.516 49.5329C178.666 47.3731 179.913 45.2753 181.228 43.2269C181.322 45.9824 181.751 48.7642 182.113 51.4287C182.684 55.6903 183.424 59.9287 184.352 64.1345C186.273 72.917 188.923 81.5315 192.283 89.8712C198.924 106.358 208.171 122.191 220.65 134.907C220.65 134.909 220.65 134.907 220.665 134.913C218.455 139.811 216.102 144.638 213.589 149.391C202.913 136.945 193.548 123.682 186.603 108.757C179.495 93.4632 175.616 77.32 172.642 60.7846C172.629 60.7095 172.598 60.644 172.563 60.5922C173.955 56.7946 175.614 53.1025 177.516 49.5329ZM191.425 30.1913C191.958 35.0187 193.173 39.8606 197.138 43.0191C198.698 44.2576 200.389 45.0091 202.092 45.2892C202.538 57.8671 205.994 70.7181 210.481 82.4016C214.849 93.7958 220.755 105.236 228.579 114.691C226.39 121.276 223.864 127.724 221.046 134.04C210.414 120.028 201.029 105.2 194.51 88.8026C191.291 80.729 188.728 72.3988 186.858 63.9152C185.875 59.4862 185.083 55.0152 184.494 50.5171C184.05 47.1228 183.921 43.5848 183.262 40.2014C185.739 36.6797 188.463 33.3319 191.425 30.1913ZM210.708 42.23C212.111 40.7678 213.427 39.2069 214.693 37.5856C215.386 45.4097 218.502 53.5029 221.409 60.4882C225.14 69.3922 229.837 77.7949 234.725 86.0938C234.973 86.5046 235.575 86.1455 235.361 85.7277C231.113 77.4762 226.723 69.2667 223.11 60.714C221.283 56.3946 219.679 51.9719 218.443 47.4522C217.366 43.5589 216.854 39.6246 216.132 35.6845C218.705 32.1101 220.967 28.2325 222.912 24.1981C223.541 25.8084 224.357 27.3906 225.009 28.9142C226.327 32.0305 227.714 35.131 229.157 38.2089C231.684 43.6293 234.436 48.945 237.303 54.1908C237.322 54.6069 237.341 55.0245 237.374 55.4478C238.145 74.1803 235.43 92.7762 229.885 110.668C229.571 111.659 229.257 112.649 228.927 113.634C222.211 103.394 216.163 93.0941 211.798 81.5654C207.335 69.7921 205.13 57.8113 203.429 45.4126C206.026 45.4593 208.607 44.409 210.708 42.23ZM229.478 6.26855C233.277 21.1263 236.189 36.252 237.159 51.5636C234.937 47.2573 232.808 42.906 230.756 38.5101C229.4 35.5973 228.081 32.6683 226.8 29.7155C225.809 27.3898 225.012 24.6416 223.811 22.307C226.19 17.0791 228.089 11.6361 229.478 6.26855ZM241.674 28.8078C243.32 32.2857 244.952 35.7505 246.6 39.2162C245.927 40.8772 245.312 42.5622 244.416 44.1408C242.994 46.7087 241.27 49.0653 239.314 51.252C238.447 38.599 236.239 26.0236 233.224 13.7181C232.638 11.2777 232.002 8.84024 231.348 6.41238C234.742 13.8965 238.188 21.3641 241.674 28.8078ZM247.891 41.9483C249.803 45.9542 251.502 50.2035 253.776 54.013C255.015 56.0853 256.746 58.2669 259.085 59.1562C258.26 60.8353 257.633 62.6294 256.72 64.2704C255.307 66.8652 253.622 69.3187 251.725 71.5883C248.187 75.845 243.718 79.2536 238.825 81.8098C238.693 81.8741 238.635 81.9695 238.592 82.0689C239.198 77.1307 239.567 72.1603 239.696 67.1744C239.782 63.6889 239.753 60.2053 239.61 56.7221C239.695 56.5882 239.722 56.4243 239.623 56.2476C239.611 56.2313 239.614 56.2191 239.587 56.1988C239.535 54.8718 239.466 53.5469 239.381 52.2193C239.402 52.2021 239.437 52.1935 239.459 52.1701C242.389 49.0306 245.602 44.951 247.279 40.6408C247.473 41.0729 247.682 41.5106 247.891 41.9483ZM260.366 59.4911C260.429 59.4998 260.505 59.5187 260.569 59.5243C263.639 59.8741 265.936 57.9369 267.626 55.589C271.359 50.4236 274.114 44.4011 276.059 38.2366C277.563 44.8016 279.081 51.3722 280.583 57.9402C280.831 59.0244 281.078 60.1086 281.341 61.1969C279.895 63.4908 279.096 66.2894 277.921 68.7247C276.57 71.514 275.061 74.2264 273.426 76.8581C270.103 82.1985 266.209 87.1738 261.847 91.7056C253.454 100.444 243.309 107.442 232.145 112.159C235.134 102.402 237.324 92.4043 238.567 82.284C238.611 82.6088 238.954 82.9097 239.349 82.7153C244.649 79.9809 249.263 76.272 253.137 71.7381C255.93 68.4984 259.288 63.9406 260.366 59.4911ZM281.863 63.4489C282.44 65.9817 283.033 68.5202 283.61 71.053C284.406 74.473 285.039 78.0157 286.694 81.1522C288.845 85.2401 293.157 87.6516 297.477 86.3821C295.719 88.5614 294.137 90.9952 292.324 93.0751C289.826 95.9437 287.196 98.6969 284.452 101.331C278.805 106.76 272.664 111.662 266.137 115.994C253.285 124.511 239.006 130.685 224.009 134.181C225.975 129.585 227.81 124.928 229.499 120.207C230.266 118.013 231.003 115.808 231.696 113.59C243.429 108.882 254.029 101.769 262.823 92.6866C267.175 88.1929 271.079 83.2444 274.421 77.9548C276.166 75.2157 277.742 72.3759 279.161 69.4563C280.084 67.5931 281.19 65.5357 281.863 63.4489ZM307.076 76.1844C309.983 82.4405 311.81 89.0141 312.768 95.7281C308.541 100.606 304.606 105.676 299.975 110.237C294.586 115.556 288.748 120.42 282.546 124.758C270.146 133.413 256.4 140.094 241.859 144.265C233.729 146.606 225.345 148.067 216.942 149.171C219.304 144.558 221.52 139.879 223.591 135.131C223.706 135.251 223.882 135.326 224.075 135.275C239.424 131.865 254.085 125.665 267.229 117.03C273.641 112.821 279.673 108.024 285.231 102.745C288.111 100.032 290.848 97.183 293.438 94.2105C295.856 91.459 298.971 88.3547 300.641 85.1061C300.707 84.9788 300.725 84.853 300.71 84.7266C303.565 82.6551 305.579 79.4596 307.076 76.1844ZM312.591 121.834C290.256 141.821 262.948 156.016 233.541 162.038C225.12 163.76 216.59 164.608 208.062 165.392C211.003 160.382 213.816 155.301 216.455 150.138C216.501 150.149 216.546 150.163 216.596 150.159C246.828 149.097 277.051 134.489 299.007 114.092C303.938 109.508 309.104 104.409 313.138 98.7909C313.918 106.41 313.647 114.178 312.591 121.834ZM311.458 128.62C309.888 136.67 307.577 144.562 304.823 152.284C304.823 152.286 304.823 152.286 304.822 152.287C296.092 156.319 287.629 160.877 278.855 164.831C270.139 168.749 261.286 172.325 252.201 175.306C234.259 181.212 215.465 184.695 196.513 183.836C200.319 178.095 204 172.27 207.496 166.345C222.842 166.598 238.549 163.253 253.061 158.462C267.876 153.574 282.015 146.582 294.899 137.762C301.094 133.511 306.889 128.747 312.334 123.585C312.078 125.271 311.791 126.951 311.458 128.62ZM299.291 182.124C300.782 183.983 302.815 185.102 304.954 185.275C299.645 191.149 294.154 196.486 287.406 200.91C279.583 206.061 271.002 209.964 262.175 213.08C253.11 216.29 243.684 218.476 234.268 220.44C224.368 222.508 214.392 224.553 204.268 225.144C192.818 225.814 181.707 224.305 171.664 218.565C172.272 217.758 172.879 216.95 173.503 216.145C181.204 205.909 188.784 195.457 195.935 184.716C196.027 184.923 196.211 185.088 196.5 185.105C215.605 186.122 234.491 182.657 252.594 176.702C261.468 173.777 270.15 170.288 278.692 166.473C287.345 162.605 296.047 158.559 304.278 153.831C303.975 154.659 303.672 155.484 303.354 156.306C301.666 160.778 299.476 165.117 297.998 169.66C297.703 170.579 297.466 171.522 297.294 172.469C288.693 176.325 280.41 180.942 271.774 184.743C262.511 188.814 253.053 192.46 243.378 195.449C224.135 201.401 204.255 204.494 184.095 203.643C183.482 203.617 183.495 204.544 184.116 204.601C215.564 207.275 246.757 197.632 275.104 184.793C282.456 181.461 290.098 178.083 297.098 173.932C296.828 176.828 297.343 179.714 299.291 182.124ZM307.853 184.927C308.337 184.765 308.817 184.554 309.297 184.286C312.08 182.727 314.351 178.756 317.574 178.109C319.09 186.393 315.096 194.361 310.714 201.215C308.177 205.146 305.498 208.994 302.71 212.766C294.168 216.827 286.041 221.53 277.204 225.047C268.493 228.518 259.521 231.322 250.403 233.455C231.908 237.772 212.781 239.27 193.827 237.875C182.852 237.073 172.015 235.15 161.293 232.676C161.062 232.624 160.875 232.714 160.771 232.859C164.189 228.381 167.622 223.909 171.012 219.417C187.796 230.738 210.049 226.882 228.66 223.351C248.336 219.618 268.438 215.029 285.736 204.525C293.993 199.52 302.411 193.061 307.853 184.927ZM285.348 238.908C289.003 234.883 292.554 230.763 295.983 226.547C302.467 218.601 308.834 210.362 314.224 201.632C318.987 193.961 322.693 185.119 320.408 175.996C320.216 175.251 319.551 174.872 318.834 174.807C315.68 174.528 313.35 176.525 311.19 178.559C310.097 179.597 309.033 180.769 307.68 181.493C305.104 182.89 302.566 181.587 301.185 179.193C298.514 174.551 301.768 168.739 303.587 164.384C305.37 160.104 307.051 155.78 308.568 151.396C314.37 134.674 318.234 116.66 316.506 98.8843C316.363 97.3486 316.169 95.8189 315.924 94.2984C315.935 94.1969 315.912 94.0979 315.888 94.0065C314.618 86.0849 312.149 78.4359 308.349 71.3125C307.622 69.9466 305.762 70.4366 305.306 71.7138C303.864 75.7558 301.423 81.0912 297.226 82.9368C290.954 85.7075 288.524 77.307 287.505 72.8926C284.264 58.8712 281.058 44.8428 277.82 30.8154C277.455 29.1942 274.925 29.2013 274.555 30.8246C272.86 38.3089 270.031 45.4553 265.968 51.9771C265.135 53.3198 264.225 55.0105 262.806 55.8029C260.589 57.0131 258.611 55.2057 257.38 53.5302C255.247 50.6525 253.947 47.0451 252.426 43.8337C245.814 29.8565 239.351 15.807 232.966 1.71282C232.332 0.306474 230.702 0.726225 230.076 1.78651C229.981 1.47081 229.886 1.15352 229.806 0.843432C229.5 -0.204323 227.898 0.23572 228.171 1.28593C228.187 1.34892 228.203 1.41029 228.219 1.47174C227.631 1.53596 227.092 1.90375 226.919 2.66978C224.312 13.9206 219.635 24.5595 212.963 33.9985C209.999 38.1808 206.03 44.5926 200.183 41.0914C195.207 38.1109 194.779 31.6151 194.439 26.4287C194.341 25.0306 192.667 24.2152 191.605 25.2582C181.047 35.6262 173.04 48.4006 168.423 62.4678C167.392 65.6462 167.099 70.1494 165.099 72.8628C162.684 76.1532 159.097 73.2868 157.562 70.6783C155.869 67.8057 156.352 64.4186 156.629 61.2536C156.95 57.8638 157.164 54.5708 156.156 51.2702C155.775 50.0133 154.361 49.7533 153.417 50.5362C139.342 62.0367 127.78 76.5137 119.514 92.6927C115.516 100.553 112.259 108.813 109.914 117.319C107.507 125.937 106.955 137.676 98.3622 142.719C87.6549 149.016 82.0093 135.753 79.8369 127.608C79.5269 126.451 77.6891 126.067 77.1429 127.253C69.0725 144.223 63.7439 162.284 61.3742 180.928C60.7873 185.553 60.3741 190.2 60.1535 194.858C59.9145 199.89 60.0793 205.057 58.7498 209.958C56.836 217.039 48.7114 225.264 41.344 219.219C35.5261 214.451 35.4727 204.546 35.943 197.738C36.0351 196.238 34.1139 196.103 33.3864 197.053C20.6987 213.724 17.3893 234.841 17.3731 255.294C17.3638 265.981 18.3037 276.596 19.125 287.227C19.2367 288.697 19.329 290.24 19.3052 291.79C19.1579 291.914 19.0748 292.102 19.1332 292.31C19.1588 292.519 19.2329 292.73 19.276 292.934C19.0797 296.406 18.2072 299.783 15.5068 302.191C13.5929 303.916 10.6427 305.065 8.23733 303.633C7.15401 302.989 6.30983 301.878 5.94917 300.668C6.2871 299.163 6.67272 297.663 7.07356 296.167C7.44436 294.844 5.68047 293.757 4.7019 294.791C3.09388 296.531 2.6533 298.602 3.04433 300.552C-5.90656 340.47 9.87508 383.596 43.6478 407.302C53.1233 413.941 63.6677 419.148 74.8841 422.03C75.1978 449.774 79.7482 477.472 86.8903 504.203C88.0213 508.443 89.2873 512.606 90.7556 516.744C91.8421 519.811 96.4673 518.62 95.6691 515.391C91.3872 498.012 86.6992 480.871 83.9992 463.129C81.9127 449.488 80.7006 435.689 80.5651 421.89C107.109 424.729 133.552 416.621 158.678 408.985C182.969 401.605 207.385 391.993 226.498 374.775C236.564 365.697 244.785 354.742 249.975 342.187C250.379 341.23 249.216 340.274 248.328 340.545C241.959 342.459 227.46 344.952 227.742 334.156C227.953 325.884 238.216 320.453 244.285 316.796C250.236 313.213 256.16 309.366 261.77 305.107C261.992 305.07 262.212 305.042 262.434 305.005C262.792 304.948 262.916 304.606 262.854 304.291C270.615 298.275 277.728 291.45 283.354 283.421C288.697 275.775 292.401 266.944 293.566 257.664C293.706 256.535 292.157 255.741 291.261 256.345C287.418 259.001 282.718 262.42 277.743 261.445C276.023 261.108 274.207 260.216 273.1 258.805C270.876 255.967 272.565 252.705 274.577 250.31C277.929 246.325 281.851 242.764 285.348 238.908Z" fill="#448862"/>
</svg>
