<svg width="70" height="56" viewBox="0 0 70 56" fill="none" xmlns="http://www.w3.org/2000/svg">
<path d="M69.8892 1.25565C69.8712 0.95837 69.7459 0.678045 69.5368 0.467729C69.3277 0.257412 69.0495 0.131698 68.7547 0.114379C53.593 -0.798635 41.4667 3.79687 36.3132 12.3762C32.8011 18.2255 32.9429 25.134 36.6873 31.9177C34.0449 34.8456 32.3 38.483 31.6636 42.39L24.5761 35.2411C27.18 30.3717 27.2343 25.4018 24.7028 21.1837C20.9554 14.9417 12.1752 11.6062 1.20747 12.2544C0.914253 12.2731 0.637859 12.399 0.430112 12.6086C0.222364 12.8181 0.09753 13.0969 0.0790168 13.3927C-0.563658 24.4493 2.74325 33.3055 8.93164 37.0854C10.9178 38.3152 13.2028 38.9662 15.5334 38.9662C18.1059 38.9221 20.6269 38.2317 22.8683 36.9576L31.38 45.5521C31.38 45.6373 31.38 45.7225 31.38 45.8077V54.7826C31.38 55.1055 31.5072 55.4151 31.7335 55.6434C31.9598 55.8717 32.2668 56 32.5869 56C32.907 56 33.214 55.8717 33.4403 55.6434C33.6666 55.4151 33.7938 55.1055 33.7938 54.7826V45.8077C33.7825 41.3134 35.4266 36.975 38.4072 33.6342C41.874 35.5698 45.368 36.5437 48.7383 36.5437C51.9131 36.5443 55.0262 35.6584 57.7327 33.9842C66.2353 28.783 70.7823 16.5517 69.8892 1.25565ZM10.1808 35.0007C4.96998 31.8234 2.11265 24.2545 2.43851 14.6344C11.976 14.3026 19.48 17.1877 22.6541 22.4437C24.6093 25.7031 24.6425 29.5561 22.7929 33.4272L14.1273 24.7049C13.8978 24.4951 13.597 24.3823 13.2873 24.39C12.9776 24.3977 12.6826 24.5253 12.4636 24.7462C12.2445 24.9672 12.1181 25.2647 12.1104 25.5771C12.1028 25.8895 12.2146 26.1928 12.4226 26.4244L21.0731 35.1498C17.2321 37.0154 13.4123 36.9819 10.1808 35.0007ZM56.4805 31.8964C51.6378 34.8546 45.893 34.815 40.1632 31.8203L57.5788 14.2509C57.7958 14.0209 57.9151 13.7146 57.9114 13.3971C57.9076 13.0797 57.7811 12.7763 57.5587 12.5516C57.3364 12.3269 57.0358 12.1987 56.7211 12.1944C56.4064 12.19 56.1024 12.3099 55.8741 12.5283L38.4555 30.0978C35.4865 24.3154 35.4382 18.5329 38.38 13.6392C42.9391 6.03071 53.7922 1.91302 67.5357 2.48822C68.109 16.3508 64.0116 27.2979 56.4805 31.8964Z" fill="white"/>
</svg>
