<svg width="245" height="584" viewBox="0 0 245 584" fill="none" xmlns="http://www.w3.org/2000/svg">
<path d="M7.25833 211.13C10.3374 219.698 14.8791 228.687 21.6916 234.895C25.1748 238.059 29.37 240.274 34.0271 241.078C37.8759 241.75 41.417 241.184 45.0157 240.341C39.5696 232.911 34.5468 225.179 29.9666 217.192C27.8497 217.271 25.7329 216.317 23.7122 215.666C20.8448 214.746 18.0737 213.592 15.2256 212.631C14.4943 212.387 14.7829 211.28 15.5334 211.477C18.4393 212.225 21.4028 212.772 24.3087 213.561C25.6943 213.94 27.2146 214.217 28.581 214.744C26.5219 211.065 24.559 207.339 22.6923 203.556C22.5191 203.61 22.3266 203.61 22.1341 203.536C17.6887 201.956 13.3588 198.516 10.3759 194.915C9.95258 194.393 10.5875 193.766 11.1264 194.18C13.0315 195.689 14.9176 197.236 17.0152 198.508C18.4393 199.38 19.9211 200.113 21.4029 200.894C20.941 199.957 20.5176 199.018 20.075 198.075C14.167 185.308 9.72163 172.199 6.23842 158.622C0.850006 175.663 1.21562 194.28 7.25833 211.13ZM48.5759 239.46C54.0028 224.291 45.7277 207.195 38.0107 194.23C33.8154 187.235 29.0621 180.609 24.1163 174.15C21.4798 170.719 18.7858 167.332 16.0915 163.955C13.7437 161.005 11.1457 157.514 7.35455 156.501C11.8 172.193 17.8427 187.479 25.2903 202.068C27.4072 198.972 28.0999 194.896 27.2339 191.284C26.9837 190.323 28.4271 189.923 28.7157 190.876C30.1398 195.729 29.1968 200.186 26.3679 204.17C28.4078 208.074 30.5246 211.933 32.7762 215.732C35.0278 210.432 36.1826 204.972 35.4898 199.137C35.4128 198.373 36.7406 198.186 36.856 198.954C37.8375 205.417 37.2025 212.079 34.0464 217.873C38.5111 225.309 43.3607 232.52 48.5759 239.46ZM79.7902 346.456C78.0775 341.251 75.595 336.336 72.6698 331.705C66.7233 322.341 59.0255 314.207 51.1354 306.486C49.2494 304.654 47.3828 302.793 45.4391 301.015C45.1697 300.78 44.6501 300.174 44.1882 299.825C45.6508 312.148 50.8659 323.363 57.5822 333.699C58.9678 330.458 58.9485 326.935 57.3512 323.581C57.0241 322.909 57.9094 322.399 58.3328 323.003C60.9693 326.717 61.1809 331.725 58.8716 335.628C61.7198 339.871 64.818 343.962 67.9933 347.921C68.4937 346.937 68.9557 345.956 69.3021 344.878C69.9756 342.677 70.3219 340.371 70.3411 338.066C70.3604 337.206 71.5727 337.254 71.6497 338.066C72.0731 341.816 71.5921 346.391 69.4945 349.762C70.4375 350.915 71.3803 352.06 72.3233 353.184C74.7481 356.084 77.1729 358.977 79.6169 361.867C79.6747 361.802 79.7325 361.744 79.7902 361.678C80.0981 361.272 80.6177 361.282 81.0026 361.519C84.0239 358.938 80.5792 348.875 79.7902 346.456ZM42.2253 299.693C41.7442 300.07 41.6479 300.788 41.2822 301.309C40.2623 302.754 39.6273 304.871 39.0114 306.505C36.8368 312.278 35.5668 318.402 35.4321 324.581C35.1627 335.835 38.896 347.089 46.4205 355.555C53.8488 363.909 68.0895 372.365 77.7117 363.87C75.6525 361.461 73.6127 359.052 71.592 356.623C70.6298 355.48 69.6677 354.327 68.7247 353.174C62.3934 354.223 56.2158 352.788 50.8082 349.395C50.0576 348.912 50.7121 347.817 51.5011 348.194C56.2929 350.473 61.4695 351.227 66.6847 350.775C66.704 350.746 66.7041 350.717 66.7041 350.69C63.3748 346.541 60.1418 342.298 57.1781 337.885C55.0613 338.131 52.5786 337.319 50.7119 336.62C48.1909 335.683 46.1703 334.219 44.0727 332.566C43.6108 332.208 44.2266 331.403 44.7077 331.754C46.9015 333.341 49.4997 334.446 52.0784 335.193C53.31 335.543 54.5993 335.647 55.8502 335.845C54.6763 334.03 53.5217 332.208 52.4633 330.335C47.0172 320.84 43.1875 310.596 42.2253 299.693ZM213.019 364.117C212.095 361.084 211.768 357.672 211.306 354.639C210.709 350.69 210.44 346.712 210.44 342.706C210.44 342.09 211.44 341.911 211.556 342.553C212.229 346.57 212.865 350.586 213.519 354.6C213.865 356.661 214.404 358.759 214.847 360.847C217.406 356.161 219.716 351.342 221.736 346.391C220.986 344.17 220.812 341.637 220.447 339.369C219.927 336.27 219.562 333.124 219.023 330.033C218.927 329.552 219.658 329.344 219.773 329.825C220.37 332.897 221.197 335.92 221.852 338.982C222.159 340.408 222.583 341.911 222.91 343.414C223.372 342.203 223.814 340.985 224.257 339.757C227.76 329.741 230.204 319.356 231.358 308.811C229.164 307.791 226.759 310.927 225.008 312.648C222.814 314.801 220.639 316.993 218.561 319.252C210.786 327.691 203.685 337.356 200.741 348.619C199.22 354.441 198.797 360.639 199.855 366.572C200.606 370.731 202.184 374.284 204.205 377.713C207.399 373.348 210.324 368.803 213.019 364.117ZM231.07 364.513C237.786 354.402 238.998 341.968 237.555 330.166C237.151 326.916 236.554 323.694 235.804 320.509C235.111 317.503 234.591 313.45 233.129 310.729C232.879 310.275 232.628 309.907 232.378 309.605C231.339 320.886 228.914 331.99 225.277 342.667C228.01 341.089 231.127 339.88 233.879 338.547C234.591 338.208 235.188 339.209 234.495 339.605C231.262 341.466 227.914 343.849 224.392 345.2C222.294 351.019 219.812 356.698 217.002 362.217C218.676 361.5 220.697 361.169 222.314 360.46C224.815 359.354 227.105 357.918 229.222 356.169C229.819 355.668 230.685 356.5 230.088 357.048C227.875 359.061 225.489 360.866 222.795 362.217C220.793 363.228 218.234 364.588 215.944 364.25C215.79 364.523 215.636 364.806 215.501 365.089C215.52 365.345 215.54 365.601 215.559 365.845C215.559 366.374 215.058 366.744 214.577 366.763C212.095 371.222 209.401 375.559 206.475 379.745C216.675 379.027 225.45 372.971 231.07 364.513ZM207.38 240.291C211.787 233.817 215.732 227.032 219.215 219.983C218.811 218.478 218.888 216.817 218.811 215.252C218.696 212.585 218.638 209.912 218.503 207.251C218.484 206.702 219.388 206.56 219.485 207.12C219.889 209.741 220.37 212.358 220.812 214.983C220.851 215.379 220.947 215.787 221.024 216.193C223.064 211.779 224.911 207.268 226.566 202.67C225.546 200.998 225.335 198.841 224.873 196.955C224.296 194.653 223.815 192.329 223.237 190.033C223.064 189.425 223.988 189.172 224.161 189.775C224.834 192.049 225.585 194.297 226.259 196.568C226.624 197.755 227.125 198.962 227.432 200.188C227.625 199.599 227.837 199.01 228.029 198.417C231.974 186.378 234.495 173.973 235.38 161.347C235.188 160.737 235.015 160.131 234.822 159.525C224.527 170.194 216.252 182.745 210.709 196.516C207.765 203.831 205.571 211.446 204.82 219.317C204.108 226.693 205.186 233.386 207.38 240.291ZM229.857 236.169C235.438 230.332 239.056 222.848 241.019 215.075C245.214 198.375 241.211 181.228 236.458 164.965C235.477 177.124 233.052 189.067 229.376 200.581C231.82 198.67 234.649 197.294 237.594 196.204C238.248 195.952 238.748 197.095 238.075 197.382C234.322 198.983 231.224 201.468 228.202 204.146C223.237 218.468 216.309 232.078 207.688 244.55C215.751 247.423 224.411 241.886 229.857 236.169ZM164.003 103.982C163.888 103.907 163.792 103.81 163.695 103.685C160.097 98.7454 157.787 92.8008 156.19 86.9467C155.959 86.0807 157.229 85.7458 157.518 86.5791C159.231 91.5364 161.617 95.9723 164.253 100.406C164.542 95.5566 164.619 90.6974 164.465 85.8536C164.465 85.3013 164.427 84.7509 164.407 84.2005C162.906 82.9112 161.906 80.8173 160.982 79.1835C159.481 76.5027 158.307 73.6623 157.287 70.7584C157.075 70.1194 158.057 69.8635 158.307 70.4813C159.346 73.2774 160.713 75.8908 162.406 78.3599C162.926 79.1258 163.58 79.8609 164.253 80.6134C163.541 68.0026 161.559 55.4745 158.846 43.1466C153.246 57.397 150.282 72.7386 150.321 88.0513C150.34 96.1839 150.975 104.311 152.476 112.313C153.823 119.647 156.363 126.513 158.326 133.635C161.348 124.032 163.176 114.052 164.003 103.982ZM183.074 94.2018C180.245 76.1525 169.392 61.0187 160.539 45.4058C163.195 56.4521 165.177 67.7293 166.139 79.07C166.563 78.61 167.005 78.1597 167.41 77.7056C168.66 76.3065 169.911 74.9094 171.278 73.5969C171.778 73.0946 172.74 73.7604 172.297 74.3917C171.239 75.9062 170.084 77.3495 168.93 78.789C168.102 79.8417 167.294 81.006 166.351 81.9951C166.39 82.6802 166.447 83.3653 166.486 84.0523C166.505 84.1409 166.543 84.2294 166.563 84.3217C166.601 84.4526 166.563 84.593 166.524 84.7201C166.794 90.0353 166.832 95.3583 166.601 100.67C167.737 99.873 168.93 99.1226 169.911 98.1892C171.778 96.4649 173.452 94.4808 174.915 92.4198C175.357 91.7712 176.358 92.3293 175.973 93.0471C174.703 95.4603 173.164 97.5579 171.201 99.4669C169.892 100.739 168.237 102.352 166.466 103.239C166.101 109.28 165.37 115.303 164.234 121.284C163.291 126.224 162.021 131.099 160.462 135.866C178.398 130.589 185.788 111.522 183.074 94.2018ZM81.0603 108.6C81.4067 108.826 81.599 109.11 81.6568 109.407C89.0658 104.465 96.0708 98.2334 100.131 90.2721C105.385 79.9744 101.478 69.1207 97.9567 58.9539C94.3965 48.6198 90.49 38.4125 86.3524 28.29C83.3696 21.0233 80.483 13.3737 75.7489 7.06738C73.4781 24.6451 73.0161 42.2825 73.9399 59.866C77.2691 55.1378 80.5983 50.4056 83.9661 45.6965C84.4664 44.9979 85.6212 45.6426 85.1401 46.3816C81.9648 51.21 78.7509 56.0115 75.5371 60.8187C75.3254 61.1227 75.0368 61.242 74.7482 61.2343C74.7867 61.2728 74.8058 61.3055 74.825 61.3421C75.1714 61.8386 74.6134 62.4678 74.0938 62.3408C74.4017 67.6138 74.8443 72.8791 75.4024 78.1366C75.5371 78.3849 75.5757 78.6582 75.5179 78.9083C81.5029 74.486 85.3902 69.5132 87.6033 62.2927C87.8343 61.5999 89.0466 61.6827 88.9504 62.4736C88.0075 69.9116 83.1579 77.6786 76.4416 81.2177C76.2107 81.3447 75.9605 81.3889 75.7681 81.3773C76.7688 90.1758 78.0966 98.9493 79.6746 107.68C80.1365 107.99 80.5984 108.296 81.0603 108.6ZM72.1308 2.92786C65.4338 9.48828 62.2008 18.4465 59.7182 27.3259C56.6776 38.2528 54.6379 49.53 55.119 60.9111C55.5423 70.6776 57.8131 80.4613 62.4895 89.1001C66.1074 95.8029 70.8992 101.072 76.7495 105.548C75.2869 96.8671 74.0745 88.1494 73.1893 79.4067C68.6669 77.9788 64.8373 73.4852 62.3356 69.7942C61.9699 69.2515 62.7975 68.6165 63.2401 69.0938C64.9529 70.9528 66.9157 72.5635 68.994 74.0338C70.2064 74.9036 71.5728 75.5829 72.8814 76.3257C72.4196 71.3125 72.0539 66.2898 71.823 61.2651C69.8216 59.9122 68.0896 57.7319 66.7809 56.0076C64.4909 53.044 62.8358 49.8147 61.5465 46.3161C61.3925 45.8773 62.1238 45.5599 62.3162 45.9929C63.7596 49.2567 65.7418 52.305 68.1281 54.9568C69.1672 56.1038 70.4566 57.1083 71.6882 58.1418C71.1687 43.8625 71.6306 29.5466 73.4396 15.252C73.8245 12.1209 74.2862 9.0072 74.825 5.90118C73.9975 4.86584 73.093 3.8728 72.1308 2.92786ZM42.0135 121.754C48.7875 104.445 48.3064 86.1461 41.8019 68.6608C35.6822 52.1915 25.3095 37.8409 14.8021 23.8984C15.187 38.095 16.9382 52.176 19.9596 65.9492C21.1527 64.7079 22.4422 63.5918 23.4044 62.0945C24.9054 59.7621 25.8099 57.1122 26.1563 54.368C26.2525 53.6059 27.4456 53.5751 27.3686 54.368C26.9645 58.8211 24.6553 65.2314 20.3253 67.5753C21.3067 71.8861 22.4229 76.1641 23.6545 80.4075C25.2518 79.172 26.9452 78.0462 28.35 76.5201C30.4092 74.2916 32.0065 71.8398 33.2381 69.0648C33.4883 68.4971 34.4697 68.9051 34.2581 69.4921C32.4106 74.1819 28.9851 79.9667 24.3087 82.5743C28.3308 95.9934 33.623 109.026 40.0699 121.473C40.2431 121.444 40.4163 121.423 40.5895 121.386C41.1861 121.273 41.6671 121.444 42.0135 121.754ZM13.6475 22.3782C13.4743 22.1665 13.3203 21.9567 13.1664 21.745C4.5834 38.8994 3.9483 58.8057 8.31677 77.2841C10.5491 86.7697 14.0323 95.9395 18.42 104.634C22.1534 112.043 28.1384 121.175 37.0485 121.642C30.8903 109.336 25.8483 96.4553 22.0379 83.244C21.9609 83.219 21.8839 83.1863 21.8069 83.1363C18.5354 80.9328 15.6488 78.2424 12.6467 75.7156C12.0694 75.2422 12.8199 74.2666 13.4357 74.6862C15.9952 76.4393 18.6317 78.0943 21.1142 79.9668C20.075 76.193 19.1513 72.3941 18.3238 68.5741C16.7843 67.7947 15.6874 66.2129 14.6097 64.9042C13.1471 63.1223 11.7422 61.3152 10.2604 59.5485C9.85623 59.0655 10.5107 58.3727 10.9533 58.8442C12.5313 60.5049 14.1671 62.1176 15.7644 63.7592C16.3802 64.4039 17.1114 65.0833 17.7465 65.826C14.8598 51.5295 13.4358 36.9615 13.6475 22.3782ZM0.0225372 181.848C0.214981 172.62 1.96614 163.508 5.14145 154.844C5.29541 154.425 5.7187 153.952 6.21906 154.017C9.91397 154.487 12.6468 156.534 15.0908 159.261C18.2469 162.783 21.0757 166.657 23.9624 170.39C29.6394 177.699 35.1433 185.174 39.8774 193.135C47.3442 205.719 57.1011 225.007 50.2308 239.781C50.5003 240.228 50.4425 240.878 49.9422 241.273C61.8159 256.816 75.4794 270.967 90.6439 283.216C96.5711 288 102.787 292.474 109.484 296.111C113.025 298.02 116.681 299.693 120.473 300.968C123.879 302.121 127.4 302.706 130.826 303.719C125.996 282.763 119.953 262.064 113.622 241.561C109.195 227.234 104.615 212.933 100.17 198.589C95.224 195.517 90.7209 191.068 86.4872 187.231C81.5222 182.716 76.7879 177.899 72.2271 172.944C63.1245 163.021 54.9843 152.266 47.8447 140.86C44.5924 135.679 41.5517 130.352 38.7228 124.914C23.4043 125.603 15.4179 106.838 10.8762 94.7194C5.02596 79.0834 1.86992 61.9291 3.89058 45.2481C4.9875 36.0859 7.66249 27.2527 12.0117 19.1105C12.4543 18.3022 13.4743 18.487 13.9361 19.1105C25.8869 34.9351 38.0492 51.1176 44.5923 70.056C50.6158 87.472 51.0007 106.593 42.6679 123.216C42.6679 123.663 42.4754 124.086 42.0905 124.35C41.9943 124.504 41.9174 124.66 41.8404 124.812C50.0385 139.999 59.9877 154.283 71.5535 167.28C76.4416 172.767 81.6183 177.92 87.0452 182.87C89.7009 185.291 92.4337 187.643 95.2048 189.927C96.1863 190.737 97.2062 191.52 98.2454 192.302C91.8948 171.539 85.9483 150.661 81.3489 129.44C79.9441 122.932 78.6548 116.396 77.4809 109.838C65.4147 103.239 57.563 89.3753 54.3492 76.4662C50 59.002 53.2138 39.8847 58.429 22.9689C61.0078 14.5823 64.6449 6.34375 71.2457 0.349182C71.7653 -0.114624 72.4772 -0.118469 72.9968 0.349182C73.8436 1.11896 74.6327 1.92914 75.3832 2.76624C75.4409 2.54492 75.4794 2.31976 75.5179 2.09845C75.6334 1.51917 76.4609 1.77515 76.3839 2.33899C76.3262 2.78546 76.2684 3.23383 76.2107 3.68225C80.3289 8.56836 83.1772 14.4052 85.756 20.2824C89.5086 28.8192 92.9725 37.4772 96.2247 46.2103C99.4193 54.7952 103.133 63.611 104.827 72.6404C106.367 80.7808 104.904 88.3592 100.228 95.2198C95.301 102.448 88.45 108.437 80.5021 112.078C80.9832 114.562 81.4837 117.045 82.0033 119.522C87.411 145.403 94.8776 170.76 102.768 195.975C102.845 196.029 102.903 196.083 102.96 196.139C122.705 188.408 138.524 173.642 148.954 155.293C152.303 149.431 155.035 143.302 157.229 136.993C157.037 136.903 156.864 136.751 156.748 136.524C153.034 129.446 151.321 120.838 149.936 113.009C148.512 104.952 147.8 96.7382 147.992 88.5555C148.358 71.9015 151.648 55.5534 157.941 40.1195C158.249 39.392 159.308 39.0706 159.75 39.8846C169.931 58.6152 184.21 76.395 185.826 98.4586C187.02 114.864 178.206 134.719 160.154 137.124C160.116 137.128 160.097 137.118 160.058 137.117C154.631 153.118 145.779 167.877 133.732 179.885C125.457 188.143 115.508 194.85 104.538 198.972C104.404 199.258 104.211 199.514 103.942 199.697C107.329 210.393 110.754 221.068 114.141 231.752C121.3 254.418 128.343 277.215 134.04 300.326C163.003 288.317 187.809 268.03 205.706 242.695C198.22 228.685 202.742 210.174 208.284 196.354C214.289 181.456 223.218 167.921 234.553 156.549C235.169 155.934 236.208 156.24 236.458 157.05C242.539 177.264 249.005 199.32 241.866 220.144C239.094 228.181 234.476 235.719 227.779 241.063C222.352 245.414 213.442 250.021 206.86 245.722C196.757 260.063 184.421 272.864 170.277 283.464C159.385 291.616 147.453 298.417 134.771 303.33C138.004 316.72 140.775 330.222 142.835 343.868C146.934 371.081 147.838 398.406 145.991 425.677C150.09 423.249 154.593 421.434 158.73 419.044C163.022 416.559 167.198 413.846 171.22 410.927C179.226 405.088 186.654 398.35 193.332 391.028C196.507 387.579 199.49 383.969 202.338 380.245C196.276 372.092 195.622 359.854 197.565 350.424C200.183 337.527 208.284 326.565 217.156 317.174C219.485 314.697 221.89 312.298 224.334 309.927C226.143 308.168 228.472 305.41 231.339 305.683C233.398 305.882 234.476 307.535 235.169 309.301C236.631 312.969 237.516 317.07 238.344 320.915C241.327 334.342 241.885 349.177 235.38 361.707C229.838 372.403 219.177 381.362 206.803 381.748C206.86 381.833 206.918 381.927 206.995 382.022C207.746 383.138 206.11 384.233 205.186 383.402C204.917 383.157 204.647 382.911 204.397 382.645C196.449 393.457 187.058 403.188 176.397 411.429C171.913 414.895 167.236 418.128 162.348 421.038C157.499 423.947 152.206 427.246 146.741 428.843C146.375 428.957 146.048 428.928 145.76 428.814C144.99 439.075 143.835 449.329 142.334 459.561C139.448 478.961 135.425 498.18 130.557 517.173C125.957 535.145 121.223 553.533 113.141 570.323C111.197 574.378 108.984 578.252 106.444 581.974C104.5 584.837 99.9197 582.259 101.748 579.226C111.466 563.17 116.912 545.406 121.877 527.434C127.054 508.715 131.461 489.771 134.771 470.636C137.581 454.619 139.621 438.415 140.756 422.152C136.792 420.339 133.116 417.514 129.671 415.066C125.322 411.975 121.127 408.669 117.105 405.201C108.657 397.944 100.863 389.987 93.3766 381.758C88.7195 376.637 84.1778 371.43 79.6746 366.166C76.9035 369.615 72.1693 371.127 67.6084 370.891C60.7959 370.533 54.3877 366.876 49.3457 362.491C39.2809 353.788 33.6808 340.729 33.2767 327.539C33.0265 320.207 34.3544 312.788 36.9331 305.93C37.8568 303.434 38.819 299.816 40.782 297.936C41.2246 297.52 41.6672 297.283 42.1291 297.17C42.3792 296.394 43.6494 296.452 43.8996 297.302C44.7848 297.614 45.593 298.218 46.3243 298.832C56.7739 307.846 66.8965 318.562 74.3056 330.222C78.3854 336.611 81.7146 343.668 83.2542 351.115C83.9085 354.243 85.1785 361.906 81.2527 363.445C81.2335 363.522 81.1949 363.607 81.1757 363.682C91.9717 376.352 103.172 388.769 115.565 399.844C120.049 403.877 124.726 407.724 129.633 411.267C133.232 413.875 137.292 416.03 140.987 418.553C142.296 397.094 141.988 375.54 139.64 354.194C137.889 338.235 135.06 322.435 131.538 306.78C131.423 306.817 131.307 306.836 131.173 306.846C124.649 307.1 117.759 304.19 111.947 301.45C105.654 298.482 99.785 294.666 94.2234 290.509C83.4851 282.488 73.4973 273.372 64.3177 263.608C58.1595 257.047 52.367 250.146 46.9593 242.958C41.0705 245.501 33.4114 244.667 27.7921 242.271C21.0373 239.385 15.976 233.667 12.1656 227.538C3.73662 213.998 -0.343094 197.746 0.0225372 181.848Z" fill="#448862"/>
</svg>
